<mxfile host="app.diagrams.net" modified="2024-02-13T04:34:26.548Z" agent="Mozilla/5.0 (Windows NT 10.0; Win64; x64) AppleWebKit/537.36 (KHTML, like Gecko) Chrome/120.0.0.0 Safari/537.36 OPR/106.0.0.0" etag="VDDuw1ZCUEPB9fPblAhv" version="23.1.2" type="device">
  <diagram id="R2lEEEUBdFMjLlhIrx00" name="Page-1">
    <mxGraphModel dx="3121" dy="2229" grid="1" gridSize="10" guides="1" tooltips="1" connect="1" arrows="1" fold="1" page="1" pageScale="1" pageWidth="850" pageHeight="1100" math="0" shadow="0" extFonts="Permanent Marker^https://fonts.googleapis.com/css?family=Permanent+Marker">
      <root>
        <mxCell id="0" />
        <mxCell id="1" parent="0" />
        <mxCell id="2F_DHolSGNnzSSAKhQXL-1" value="Productos" style="rounded=0;whiteSpace=wrap;html=1;" parent="1" vertex="1">
          <mxGeometry x="1410" y="1270" width="120" height="60" as="geometry" />
        </mxCell>
        <mxCell id="2F_DHolSGNnzSSAKhQXL-2" value="Pedidos" style="rounded=0;whiteSpace=wrap;html=1;" parent="1" vertex="1">
          <mxGeometry x="640" y="1310" width="120" height="60" as="geometry" />
        </mxCell>
        <mxCell id="2F_DHolSGNnzSSAKhQXL-3" value="Valoraciones" style="rounded=0;whiteSpace=wrap;html=1;" parent="1" vertex="1">
          <mxGeometry x="830" y="597.5" width="120" height="60" as="geometry" />
        </mxCell>
        <mxCell id="2F_DHolSGNnzSSAKhQXL-5" value="marcas" style="rounded=0;whiteSpace=wrap;html=1;" parent="1" vertex="1">
          <mxGeometry x="1130" y="980" width="120" height="60" as="geometry" />
        </mxCell>
        <mxCell id="2F_DHolSGNnzSSAKhQXL-6" value="categorias" style="rounded=0;whiteSpace=wrap;html=1;" parent="1" vertex="1">
          <mxGeometry x="1750" y="1010" width="120" height="60" as="geometry" />
        </mxCell>
        <mxCell id="2F_DHolSGNnzSSAKhQXL-7" value="administradores" style="rounded=0;whiteSpace=wrap;html=1;" parent="1" vertex="1">
          <mxGeometry x="1685" y="322.5" width="120" height="60" as="geometry" />
        </mxCell>
        <mxCell id="2F_DHolSGNnzSSAKhQXL-8" value="permisos" style="rounded=0;whiteSpace=wrap;html=1;" parent="1" vertex="1">
          <mxGeometry x="2070" y="190" width="120" height="60" as="geometry" />
        </mxCell>
        <mxCell id="2F_DHolSGNnzSSAKhQXL-9" value="Clientes" style="rounded=0;whiteSpace=wrap;html=1;" parent="1" vertex="1">
          <mxGeometry x="-70" y="1080" width="120" height="60" as="geometry" />
        </mxCell>
        <mxCell id="2F_DHolSGNnzSSAKhQXL-10" value="id_admin" style="ellipse;whiteSpace=wrap;html=1;fontStyle=4;fillColor=#e1d5e7;strokeColor=#9673a6;" parent="1" vertex="1">
          <mxGeometry x="1470" y="40" width="120" height="80" as="geometry" />
        </mxCell>
        <mxCell id="2F_DHolSGNnzSSAKhQXL-12" value="apellido_admin" style="ellipse;whiteSpace=wrap;html=1;" parent="1" vertex="1">
          <mxGeometry x="1470" y="140" width="120" height="80" as="geometry" />
        </mxCell>
        <mxCell id="2F_DHolSGNnzSSAKhQXL-13" value="correo_admin" style="ellipse;whiteSpace=wrap;html=1;" parent="1" vertex="1">
          <mxGeometry x="1470" y="240" width="120" height="80" as="geometry" />
        </mxCell>
        <mxCell id="2F_DHolSGNnzSSAKhQXL-14" value="alias_admin" style="ellipse;whiteSpace=wrap;html=1;" parent="1" vertex="1">
          <mxGeometry x="1440" y="322.5" width="120" height="80" as="geometry" />
        </mxCell>
        <mxCell id="2F_DHolSGNnzSSAKhQXL-15" value="clave_admin" style="ellipse;whiteSpace=wrap;html=1;" parent="1" vertex="1">
          <mxGeometry x="1440" y="417.5" width="120" height="80" as="geometry" />
        </mxCell>
        <mxCell id="2F_DHolSGNnzSSAKhQXL-16" value="fecha_registro_admin" style="ellipse;whiteSpace=wrap;html=1;" parent="1" vertex="1">
          <mxGeometry x="1440" y="522.5" width="120" height="80" as="geometry" />
        </mxCell>
        <mxCell id="2F_DHolSGNnzSSAKhQXL-17" value="imagen_administrador" style="ellipse;whiteSpace=wrap;html=1;" parent="1" vertex="1">
          <mxGeometry x="1440" y="632.5" width="120" height="80" as="geometry" />
        </mxCell>
        <mxCell id="2F_DHolSGNnzSSAKhQXL-25" value="id_cliente" style="ellipse;whiteSpace=wrap;html=1;" parent="1" vertex="1">
          <mxGeometry x="-330" y="1180" width="120" height="80" as="geometry" />
        </mxCell>
        <mxCell id="2F_DHolSGNnzSSAKhQXL-26" value="nombre_cliente" style="ellipse;whiteSpace=wrap;html=1;" parent="1" vertex="1">
          <mxGeometry x="-180" y="1180" width="120" height="80" as="geometry" />
        </mxCell>
        <mxCell id="2F_DHolSGNnzSSAKhQXL-27" value="apellido_cliente" style="ellipse;whiteSpace=wrap;html=1;" parent="1" vertex="1">
          <mxGeometry x="-30" y="1180" width="120" height="80" as="geometry" />
        </mxCell>
        <mxCell id="2F_DHolSGNnzSSAKhQXL-28" value="dui_cliente" style="ellipse;whiteSpace=wrap;html=1;" parent="1" vertex="1">
          <mxGeometry x="130" y="1180" width="120" height="80" as="geometry" />
        </mxCell>
        <mxCell id="2F_DHolSGNnzSSAKhQXL-29" value="correo_cliente" style="ellipse;whiteSpace=wrap;html=1;" parent="1" vertex="1">
          <mxGeometry x="-260" y="1300" width="120" height="80" as="geometry" />
        </mxCell>
        <mxCell id="2F_DHolSGNnzSSAKhQXL-30" value="telefono_cliente" style="ellipse;whiteSpace=wrap;html=1;" parent="1" vertex="1">
          <mxGeometry x="-100" y="1300" width="120" height="80" as="geometry" />
        </mxCell>
        <mxCell id="2F_DHolSGNnzSSAKhQXL-31" value="nacimiento_cliente" style="ellipse;whiteSpace=wrap;html=1;" parent="1" vertex="1">
          <mxGeometry x="60" y="1300" width="120" height="80" as="geometry" />
        </mxCell>
        <mxCell id="2F_DHolSGNnzSSAKhQXL-32" value="direccion_cliente" style="ellipse;whiteSpace=wrap;html=1;" parent="1" vertex="1">
          <mxGeometry x="-260" y="1410" width="120" height="80" as="geometry" />
        </mxCell>
        <mxCell id="2F_DHolSGNnzSSAKhQXL-33" value="clave_cliente" style="ellipse;whiteSpace=wrap;html=1;" parent="1" vertex="1">
          <mxGeometry x="-100" y="1420" width="120" height="80" as="geometry" />
        </mxCell>
        <mxCell id="2F_DHolSGNnzSSAKhQXL-34" value="estado_cliente" style="ellipse;whiteSpace=wrap;html=1;" parent="1" vertex="1">
          <mxGeometry x="60" y="1420" width="120" height="80" as="geometry" />
        </mxCell>
        <mxCell id="2F_DHolSGNnzSSAKhQXL-35" value="fecha_registro_cliente" style="ellipse;whiteSpace=wrap;html=1;" parent="1" vertex="1">
          <mxGeometry x="-170" y="1530" width="130" height="80" as="geometry" />
        </mxCell>
        <mxCell id="2F_DHolSGNnzSSAKhQXL-36" value="imagen_cliente" style="ellipse;whiteSpace=wrap;html=1;" parent="1" vertex="1">
          <mxGeometry x="-20" y="1530" width="120" height="80" as="geometry" />
        </mxCell>
        <mxCell id="2F_DHolSGNnzSSAKhQXL-37" value="Tiene" style="rhombus;whiteSpace=wrap;html=1;" parent="1" vertex="1">
          <mxGeometry x="1900" y="210" width="80" height="80" as="geometry" />
        </mxCell>
        <mxCell id="2F_DHolSGNnzSSAKhQXL-52" value="nombre_permiso" style="ellipse;whiteSpace=wrap;html=1;" parent="1" vertex="1">
          <mxGeometry x="1940" y="30" width="120" height="80" as="geometry" />
        </mxCell>
        <mxCell id="2F_DHolSGNnzSSAKhQXL-53" value="eliminar_usuario" style="ellipse;whiteSpace=wrap;html=1;" parent="1" vertex="1">
          <mxGeometry x="2085" y="30" width="120" height="80" as="geometry" />
        </mxCell>
        <mxCell id="2F_DHolSGNnzSSAKhQXL-54" value="agregar_actualizar&amp;nbsp;&lt;br&gt;_Producto" style="ellipse;whiteSpace=wrap;html=1;" parent="1" vertex="1">
          <mxGeometry x="2210" y="30" width="120" height="80" as="geometry" />
        </mxCell>
        <mxCell id="2F_DHolSGNnzSSAKhQXL-55" value="agregar_actualizar&lt;br&gt;_Usuario" style="ellipse;whiteSpace=wrap;html=1;" parent="1" vertex="1">
          <mxGeometry x="1805" y="30" width="120" height="80" as="geometry" />
        </mxCell>
        <mxCell id="2F_DHolSGNnzSSAKhQXL-56" value="eliminar_producto" style="ellipse;whiteSpace=wrap;html=1;" parent="1" vertex="1">
          <mxGeometry x="2341" y="-120" width="120" height="80" as="geometry" />
        </mxCell>
        <mxCell id="2F_DHolSGNnzSSAKhQXL-57" value="borrar_comentario" style="ellipse;whiteSpace=wrap;html=1;" parent="1" vertex="1">
          <mxGeometry x="1900" y="-120" width="120" height="80" as="geometry" />
        </mxCell>
        <mxCell id="2F_DHolSGNnzSSAKhQXL-58" value="Agregar_actualizar&lt;br&gt;_categoria" style="ellipse;whiteSpace=wrap;html=1;" parent="1" vertex="1">
          <mxGeometry x="2050" y="-120" width="120" height="80" as="geometry" />
        </mxCell>
        <mxCell id="2F_DHolSGNnzSSAKhQXL-59" value="eliminar_categoria" style="ellipse;whiteSpace=wrap;html=1;" parent="1" vertex="1">
          <mxGeometry x="1760" y="-120" width="120" height="80" as="geometry" />
        </mxCell>
        <mxCell id="2F_DHolSGNnzSSAKhQXL-70" value="" style="endArrow=none;html=1;rounded=0;exitX=1;exitY=0.25;exitDx=0;exitDy=0;entryX=0.5;entryY=1;entryDx=0;entryDy=0;" parent="1" source="2F_DHolSGNnzSSAKhQXL-7" target="2F_DHolSGNnzSSAKhQXL-37" edge="1">
          <mxGeometry width="50" height="50" relative="1" as="geometry">
            <mxPoint x="1765" y="340" as="sourcePoint" />
            <mxPoint x="1790" y="180" as="targetPoint" />
          </mxGeometry>
        </mxCell>
        <mxCell id="b3NYXewxobcBwOrp7OXC-1" value="gestionar_cupon" style="ellipse;whiteSpace=wrap;html=1;" parent="1" vertex="1">
          <mxGeometry x="2200" y="-120" width="120" height="80" as="geometry" />
        </mxCell>
        <mxCell id="b3NYXewxobcBwOrp7OXC-3" value="nombre" style="ellipse;whiteSpace=wrap;html=1;" parent="1" vertex="1">
          <mxGeometry x="1940" y="970" width="120" height="80" as="geometry" />
        </mxCell>
        <mxCell id="b3NYXewxobcBwOrp7OXC-4" value="descripción" style="ellipse;whiteSpace=wrap;html=1;" parent="1" vertex="1">
          <mxGeometry x="1940" y="1080" width="120" height="80" as="geometry" />
        </mxCell>
        <mxCell id="b3NYXewxobcBwOrp7OXC-5" value="imagen" style="ellipse;whiteSpace=wrap;html=1;" parent="1" vertex="1">
          <mxGeometry x="1940" y="1190" width="120" height="80" as="geometry" />
        </mxCell>
        <mxCell id="b3NYXewxobcBwOrp7OXC-9" value="nombre_marcas" style="ellipse;whiteSpace=wrap;html=1;" parent="1" vertex="1">
          <mxGeometry x="1010" y="800" width="120" height="80" as="geometry" />
        </mxCell>
        <mxCell id="b3NYXewxobcBwOrp7OXC-10" value="imagen" style="ellipse;whiteSpace=wrap;html=1;" parent="1" vertex="1">
          <mxGeometry x="1130" y="800" width="120" height="80" as="geometry" />
        </mxCell>
        <mxCell id="b3NYXewxobcBwOrp7OXC-13" value="nombre_producto" style="ellipse;whiteSpace=wrap;html=1;" parent="1" vertex="1">
          <mxGeometry x="1250" y="1430" width="120" height="80" as="geometry" />
        </mxCell>
        <mxCell id="b3NYXewxobcBwOrp7OXC-14" value="descripcion_producto" style="ellipse;whiteSpace=wrap;html=1;" parent="1" vertex="1">
          <mxGeometry x="1390" y="1430" width="120" height="80" as="geometry" />
        </mxCell>
        <mxCell id="b3NYXewxobcBwOrp7OXC-15" value="precio_producto" style="ellipse;whiteSpace=wrap;html=1;" parent="1" vertex="1">
          <mxGeometry x="1540" y="1430" width="120" height="80" as="geometry" />
        </mxCell>
        <mxCell id="b3NYXewxobcBwOrp7OXC-16" value="imagen_producto" style="ellipse;whiteSpace=wrap;html=1;" parent="1" vertex="1">
          <mxGeometry x="1690" y="1430" width="120" height="80" as="geometry" />
        </mxCell>
        <mxCell id="b3NYXewxobcBwOrp7OXC-17" value="estado_producto" style="ellipse;whiteSpace=wrap;html=1;" parent="1" vertex="1">
          <mxGeometry x="1250" y="1540" width="120" height="80" as="geometry" />
        </mxCell>
        <mxCell id="b3NYXewxobcBwOrp7OXC-18" value="existencia_producto" style="ellipse;whiteSpace=wrap;html=1;" parent="1" vertex="1">
          <mxGeometry x="1390" y="1540" width="120" height="80" as="geometry" />
        </mxCell>
        <mxCell id="b3NYXewxobcBwOrp7OXC-19" value="fecha_registro_producto" style="ellipse;whiteSpace=wrap;html=1;" parent="1" vertex="1">
          <mxGeometry x="1540" y="1540" width="150" height="80" as="geometry" />
        </mxCell>
        <mxCell id="b3NYXewxobcBwOrp7OXC-20" value="mascota" style="ellipse;whiteSpace=wrap;html=1;" parent="1" vertex="1">
          <mxGeometry x="1710" y="1540" width="120" height="80" as="geometry" />
        </mxCell>
        <mxCell id="yYhjXtK-f7d1NUz5v1KG-75" style="edgeStyle=none;shape=connector;rounded=0;orthogonalLoop=1;jettySize=auto;html=1;exitX=0.5;exitY=0;exitDx=0;exitDy=0;entryX=0.75;entryY=1;entryDx=0;entryDy=0;labelBackgroundColor=default;strokeColor=default;align=center;verticalAlign=middle;fontFamily=Helvetica;fontSize=11;fontColor=default;endArrow=none;" parent="1" source="b3NYXewxobcBwOrp7OXC-22" target="2F_DHolSGNnzSSAKhQXL-1" edge="1">
          <mxGeometry relative="1" as="geometry" />
        </mxCell>
        <mxCell id="b3NYXewxobcBwOrp7OXC-22" value="id_marca" style="ellipse;whiteSpace=wrap;html=1;" parent="1" vertex="1">
          <mxGeometry x="1470" y="1650" width="120" height="80" as="geometry" />
        </mxCell>
        <mxCell id="yYhjXtK-f7d1NUz5v1KG-74" style="edgeStyle=none;shape=connector;rounded=0;orthogonalLoop=1;jettySize=auto;html=1;exitX=1;exitY=0;exitDx=0;exitDy=0;entryX=1;entryY=1;entryDx=0;entryDy=0;labelBackgroundColor=default;strokeColor=default;align=center;verticalAlign=middle;fontFamily=Helvetica;fontSize=11;fontColor=default;endArrow=none;" parent="1" source="b3NYXewxobcBwOrp7OXC-23" target="2F_DHolSGNnzSSAKhQXL-1" edge="1">
          <mxGeometry relative="1" as="geometry">
            <Array as="points">
              <mxPoint x="1670" y="1440" />
            </Array>
          </mxGeometry>
        </mxCell>
        <mxCell id="b3NYXewxobcBwOrp7OXC-23" value="id_categoria" style="ellipse;whiteSpace=wrap;html=1;" parent="1" vertex="1">
          <mxGeometry x="1630" y="1650" width="120" height="80" as="geometry" />
        </mxCell>
        <mxCell id="b3NYXewxobcBwOrp7OXC-24" value="estado_pedido" style="ellipse;whiteSpace=wrap;html=1;" parent="1" vertex="1">
          <mxGeometry x="710" y="1530" width="120" height="80" as="geometry" />
        </mxCell>
        <mxCell id="b3NYXewxobcBwOrp7OXC-25" value="fecha_registro" style="ellipse;whiteSpace=wrap;html=1;" parent="1" vertex="1">
          <mxGeometry x="700" y="1620" width="120" height="80" as="geometry" />
        </mxCell>
        <mxCell id="b3NYXewxobcBwOrp7OXC-26" value="direccion_pedido" style="ellipse;whiteSpace=wrap;html=1;" parent="1" vertex="1">
          <mxGeometry x="560" y="1630" width="120" height="80" as="geometry" />
        </mxCell>
        <mxCell id="b3NYXewxobcBwOrp7OXC-27" value="id_cliente" style="ellipse;whiteSpace=wrap;html=1;" parent="1" vertex="1">
          <mxGeometry x="570" y="1530" width="120" height="80" as="geometry" />
        </mxCell>
        <mxCell id="b3NYXewxobcBwOrp7OXC-43" value="precio_producto" style="ellipse;whiteSpace=wrap;html=1;" parent="1" vertex="1">
          <mxGeometry x="960" y="1000" width="120" height="80" as="geometry" />
        </mxCell>
        <mxCell id="b3NYXewxobcBwOrp7OXC-44" value="id_producto" style="ellipse;whiteSpace=wrap;html=1;" parent="1" vertex="1">
          <mxGeometry x="710" y="1080" width="120" height="80" as="geometry" />
        </mxCell>
        <mxCell id="b3NYXewxobcBwOrp7OXC-45" value="id_pedido" style="ellipse;whiteSpace=wrap;html=1;" parent="1" vertex="1">
          <mxGeometry x="710" y="970" width="120" height="80" as="geometry" />
        </mxCell>
        <mxCell id="b3NYXewxobcBwOrp7OXC-46" value="cantidad_producto" style="ellipse;whiteSpace=wrap;html=1;" parent="1" vertex="1">
          <mxGeometry x="940" y="1095" width="120" height="80" as="geometry" />
        </mxCell>
        <mxCell id="b3NYXewxobcBwOrp7OXC-47" value="calificación" style="ellipse;whiteSpace=wrap;html=1;" parent="1" vertex="1">
          <mxGeometry x="910" y="267.5" width="120" height="80" as="geometry" />
        </mxCell>
        <mxCell id="b3NYXewxobcBwOrp7OXC-48" value="comentarios" style="ellipse;whiteSpace=wrap;html=1;" parent="1" vertex="1">
          <mxGeometry x="720" y="375" width="120" height="80" as="geometry" />
        </mxCell>
        <mxCell id="b3NYXewxobcBwOrp7OXC-49" value="fecha_valoración" style="ellipse;whiteSpace=wrap;html=1;" parent="1" vertex="1">
          <mxGeometry x="720" y="475" width="120" height="80" as="geometry" />
        </mxCell>
        <mxCell id="b3NYXewxobcBwOrp7OXC-50" value="estado" style="ellipse;whiteSpace=wrap;html=1;" parent="1" vertex="1">
          <mxGeometry x="940" y="475" width="120" height="80" as="geometry" />
        </mxCell>
        <mxCell id="b3NYXewxobcBwOrp7OXC-51" value="id_detalle_pedido" style="ellipse;whiteSpace=wrap;html=1;" parent="1" vertex="1">
          <mxGeometry x="940" y="375" width="120" height="80" as="geometry" />
        </mxCell>
        <mxCell id="b3NYXewxobcBwOrp7OXC-61" value="cupon_oferta" style="rounded=0;whiteSpace=wrap;html=1;" parent="1" vertex="1">
          <mxGeometry x="-430" y="800" width="120" height="60" as="geometry" />
        </mxCell>
        <mxCell id="b3NYXewxobcBwOrp7OXC-63" value="codigo" style="ellipse;whiteSpace=wrap;html=1;" parent="1" vertex="1">
          <mxGeometry x="-520" y="630" width="120" height="80" as="geometry" />
        </mxCell>
        <mxCell id="b3NYXewxobcBwOrp7OXC-64" value="porcentaje" style="ellipse;whiteSpace=wrap;html=1;" parent="1" vertex="1">
          <mxGeometry x="-370" y="630" width="120" height="80" as="geometry" />
        </mxCell>
        <mxCell id="b3NYXewxobcBwOrp7OXC-65" value="estado" style="ellipse;whiteSpace=wrap;html=1;" parent="1" vertex="1">
          <mxGeometry x="-630" y="510" width="120" height="80" as="geometry" />
        </mxCell>
        <mxCell id="b3NYXewxobcBwOrp7OXC-66" value="fecha_ingreso" style="ellipse;whiteSpace=wrap;html=1;" parent="1" vertex="1">
          <mxGeometry x="-290" y="510" width="120" height="80" as="geometry" />
        </mxCell>
        <mxCell id="b3NYXewxobcBwOrp7OXC-67" value="id_cupon" style="ellipse;whiteSpace=wrap;html=1;" parent="1" vertex="1">
          <mxGeometry x="130" y="750" width="120" height="80" as="geometry" />
        </mxCell>
        <mxCell id="b3NYXewxobcBwOrp7OXC-68" value="id_cliente" style="ellipse;whiteSpace=wrap;html=1;" parent="1" vertex="1">
          <mxGeometry x="140" y="840" width="120" height="80" as="geometry" />
        </mxCell>
        <mxCell id="b3NYXewxobcBwOrp7OXC-76" value="pertenece" style="rhombus;whiteSpace=wrap;html=1;" parent="1" vertex="1">
          <mxGeometry x="1430" y="1000" width="80" height="80" as="geometry" />
        </mxCell>
        <mxCell id="b3NYXewxobcBwOrp7OXC-80" value="pertenece" style="rhombus;whiteSpace=wrap;html=1;" parent="1" vertex="1">
          <mxGeometry x="1250" y="1110" width="80" height="80" as="geometry" />
        </mxCell>
        <mxCell id="b3NYXewxobcBwOrp7OXC-87" value="pertenece" style="rhombus;whiteSpace=wrap;html=1;" parent="1" vertex="1">
          <mxGeometry x="1021" y="1245" width="80" height="80" as="geometry" />
        </mxCell>
        <mxCell id="b3NYXewxobcBwOrp7OXC-97" value="detalle_pedido" style="rounded=0;whiteSpace=wrap;html=1;" parent="1" vertex="1">
          <mxGeometry x="830" y="1040" width="120" height="60" as="geometry" />
        </mxCell>
        <mxCell id="b3NYXewxobcBwOrp7OXC-105" value="Tiene" style="rhombus;whiteSpace=wrap;html=1;" parent="1" vertex="1">
          <mxGeometry x="850" y="750" width="80" height="80" as="geometry" />
        </mxCell>
        <mxCell id="b3NYXewxobcBwOrp7OXC-108" value="Realiza" style="rhombus;whiteSpace=wrap;html=1;" parent="1" vertex="1">
          <mxGeometry x="385" y="1070" width="80" height="80" as="geometry" />
        </mxCell>
        <mxCell id="b3NYXewxobcBwOrp7OXC-111" value="cupones_utilizados" style="rhombus;whiteSpace=wrap;html=1;" parent="1" vertex="1">
          <mxGeometry x="-60" y="757.5" width="120" height="115" as="geometry" />
        </mxCell>
        <mxCell id="b3NYXewxobcBwOrp7OXC-120" value="N" style="text;html=1;strokeColor=none;fillColor=none;align=center;verticalAlign=middle;whiteSpace=wrap;rounded=0;" parent="1" vertex="1">
          <mxGeometry x="1420" y="1070" width="60" height="30" as="geometry" />
        </mxCell>
        <mxCell id="b3NYXewxobcBwOrp7OXC-121" value="1" style="text;html=1;strokeColor=none;fillColor=none;align=center;verticalAlign=middle;whiteSpace=wrap;rounded=0;" parent="1" vertex="1">
          <mxGeometry x="1500" y="1040" width="60" height="30" as="geometry" />
        </mxCell>
        <mxCell id="b3NYXewxobcBwOrp7OXC-125" value="M" style="text;html=1;strokeColor=none;fillColor=none;align=center;verticalAlign=middle;whiteSpace=wrap;rounded=0;" parent="1" vertex="1">
          <mxGeometry x="1310" y="1170" width="60" height="30" as="geometry" />
        </mxCell>
        <mxCell id="b3NYXewxobcBwOrp7OXC-127" value="1" style="text;html=1;strokeColor=none;fillColor=none;align=center;verticalAlign=middle;whiteSpace=wrap;rounded=0;" parent="1" vertex="1">
          <mxGeometry x="1230" y="1080" width="60" height="30" as="geometry" />
        </mxCell>
        <mxCell id="b3NYXewxobcBwOrp7OXC-128" value="1" style="text;html=1;strokeColor=none;fillColor=none;align=center;verticalAlign=middle;whiteSpace=wrap;rounded=0;" parent="1" vertex="1">
          <mxGeometry x="1090" y="1290" width="60" height="30" as="geometry" />
        </mxCell>
        <mxCell id="b3NYXewxobcBwOrp7OXC-129" value="Tiene" style="rhombus;whiteSpace=wrap;html=1;" parent="1" vertex="1">
          <mxGeometry x="820" y="1200" width="80" height="80" as="geometry" />
        </mxCell>
        <mxCell id="b3NYXewxobcBwOrp7OXC-134" value="M" style="text;html=1;strokeColor=none;fillColor=none;align=center;verticalAlign=middle;whiteSpace=wrap;rounded=0;" parent="1" vertex="1">
          <mxGeometry x="970" y="1250" width="60" height="30" as="geometry" />
        </mxCell>
        <mxCell id="b3NYXewxobcBwOrp7OXC-137" value="1" style="text;html=1;strokeColor=none;fillColor=none;align=center;verticalAlign=middle;whiteSpace=wrap;rounded=0;" parent="1" vertex="1">
          <mxGeometry x="850" y="1280" width="60" height="30" as="geometry" />
        </mxCell>
        <mxCell id="b3NYXewxobcBwOrp7OXC-138" value="M" style="text;html=1;strokeColor=none;fillColor=none;align=center;verticalAlign=middle;whiteSpace=wrap;rounded=0;" parent="1" vertex="1">
          <mxGeometry x="800" y="1180" width="60" height="30" as="geometry" />
        </mxCell>
        <mxCell id="b3NYXewxobcBwOrp7OXC-140" value="1" style="text;html=1;strokeColor=none;fillColor=none;align=center;verticalAlign=middle;whiteSpace=wrap;rounded=0;" parent="1" vertex="1">
          <mxGeometry x="890" y="835" width="60" height="30" as="geometry" />
        </mxCell>
        <mxCell id="b3NYXewxobcBwOrp7OXC-143" value="M" style="text;html=1;strokeColor=none;fillColor=none;align=center;verticalAlign=middle;whiteSpace=wrap;rounded=0;" parent="1" vertex="1">
          <mxGeometry x="840" y="715" width="60" height="30" as="geometry" />
        </mxCell>
        <mxCell id="4FlmDiTLjiJ03aOqT-Md-1" value="" style="endArrow=none;html=1;rounded=0;exitX=1;exitY=0.5;exitDx=0;exitDy=0;entryX=0;entryY=0.618;entryDx=0;entryDy=0;entryPerimeter=0;" parent="1" source="2F_DHolSGNnzSSAKhQXL-6" target="b3NYXewxobcBwOrp7OXC-3" edge="1">
          <mxGeometry width="50" height="50" relative="1" as="geometry">
            <mxPoint x="1900" y="1010" as="sourcePoint" />
            <mxPoint x="1950" y="960" as="targetPoint" />
          </mxGeometry>
        </mxCell>
        <mxCell id="4FlmDiTLjiJ03aOqT-Md-4" value="" style="endArrow=none;html=1;rounded=0;entryX=1.013;entryY=0.664;entryDx=0;entryDy=0;entryPerimeter=0;exitX=-0.026;exitY=0.431;exitDx=0;exitDy=0;exitPerimeter=0;" parent="1" source="b3NYXewxobcBwOrp7OXC-4" target="2F_DHolSGNnzSSAKhQXL-6" edge="1">
          <mxGeometry width="50" height="50" relative="1" as="geometry">
            <mxPoint x="1870" y="1110" as="sourcePoint" />
            <mxPoint x="1920" y="1060" as="targetPoint" />
          </mxGeometry>
        </mxCell>
        <mxCell id="4FlmDiTLjiJ03aOqT-Md-5" value="" style="endArrow=none;html=1;rounded=0;exitX=0.018;exitY=0.281;exitDx=0;exitDy=0;exitPerimeter=0;" parent="1" source="b3NYXewxobcBwOrp7OXC-5" edge="1">
          <mxGeometry width="50" height="50" relative="1" as="geometry">
            <mxPoint x="1800" y="1120" as="sourcePoint" />
            <mxPoint x="1850" y="1070" as="targetPoint" />
          </mxGeometry>
        </mxCell>
        <mxCell id="zYeqs-Y39ctY3acqWYT0-1" value="" style="endArrow=none;html=1;rounded=0;exitX=0.5;exitY=0;exitDx=0;exitDy=0;entryX=1;entryY=1;entryDx=0;entryDy=0;" parent="1" source="b3NYXewxobcBwOrp7OXC-16" target="2F_DHolSGNnzSSAKhQXL-1" edge="1">
          <mxGeometry width="50" height="50" relative="1" as="geometry">
            <mxPoint x="1670" y="1410" as="sourcePoint" />
            <mxPoint x="1720" y="1360" as="targetPoint" />
          </mxGeometry>
        </mxCell>
        <mxCell id="zYeqs-Y39ctY3acqWYT0-2" value="" style="endArrow=none;html=1;rounded=0;exitX=0;exitY=0;exitDx=0;exitDy=0;entryX=0.877;entryY=0.983;entryDx=0;entryDy=0;entryPerimeter=0;" parent="1" source="b3NYXewxobcBwOrp7OXC-20" target="2F_DHolSGNnzSSAKhQXL-1" edge="1">
          <mxGeometry width="50" height="50" relative="1" as="geometry">
            <mxPoint x="1760" y="1440" as="sourcePoint" />
            <mxPoint x="1540" y="1340" as="targetPoint" />
            <Array as="points">
              <mxPoint x="1650" y="1440" />
            </Array>
          </mxGeometry>
        </mxCell>
        <mxCell id="zYeqs-Y39ctY3acqWYT0-4" value="" style="endArrow=none;html=1;rounded=0;exitX=0.289;exitY=-0.005;exitDx=0;exitDy=0;entryX=1;entryY=1;entryDx=0;entryDy=0;exitPerimeter=0;" parent="1" source="b3NYXewxobcBwOrp7OXC-15" edge="1">
          <mxGeometry width="50" height="50" relative="1" as="geometry">
            <mxPoint x="1680" y="1430" as="sourcePoint" />
            <mxPoint x="1460" y="1330" as="targetPoint" />
          </mxGeometry>
        </mxCell>
        <mxCell id="zYeqs-Y39ctY3acqWYT0-5" value="" style="endArrow=none;html=1;rounded=0;exitX=0.5;exitY=0;exitDx=0;exitDy=0;entryX=1;entryY=1;entryDx=0;entryDy=0;" parent="1" source="b3NYXewxobcBwOrp7OXC-13" edge="1">
          <mxGeometry width="50" height="50" relative="1" as="geometry">
            <mxPoint x="1640" y="1430" as="sourcePoint" />
            <mxPoint x="1420" y="1330" as="targetPoint" />
          </mxGeometry>
        </mxCell>
        <mxCell id="zYeqs-Y39ctY3acqWYT0-6" value="" style="endArrow=none;html=1;rounded=0;exitX=1;exitY=0;exitDx=0;exitDy=0;entryX=1;entryY=1;entryDx=0;entryDy=0;" parent="1" source="b3NYXewxobcBwOrp7OXC-17" edge="1">
          <mxGeometry width="50" height="50" relative="1" as="geometry">
            <mxPoint x="1660" y="1430" as="sourcePoint" />
            <mxPoint x="1440" y="1330" as="targetPoint" />
          </mxGeometry>
        </mxCell>
        <mxCell id="zYeqs-Y39ctY3acqWYT0-7" value="" style="endArrow=none;html=1;rounded=0;exitX=1;exitY=0;exitDx=0;exitDy=0;entryX=1;entryY=1;entryDx=0;entryDy=0;" parent="1" source="b3NYXewxobcBwOrp7OXC-14" edge="1">
          <mxGeometry width="50" height="50" relative="1" as="geometry">
            <mxPoint x="1670" y="1430" as="sourcePoint" />
            <mxPoint x="1450" y="1330" as="targetPoint" />
          </mxGeometry>
        </mxCell>
        <mxCell id="zYeqs-Y39ctY3acqWYT0-9" value="" style="endArrow=none;html=1;rounded=0;exitX=0.059;exitY=0.229;exitDx=0;exitDy=0;entryX=0.655;entryY=1.06;entryDx=0;entryDy=0;entryPerimeter=0;exitPerimeter=0;" parent="1" source="b3NYXewxobcBwOrp7OXC-19" target="2F_DHolSGNnzSSAKhQXL-1" edge="1">
          <mxGeometry width="50" height="50" relative="1" as="geometry">
            <mxPoint x="1570" y="1550" as="sourcePoint" />
            <mxPoint x="1350" y="1450" as="targetPoint" />
          </mxGeometry>
        </mxCell>
        <mxCell id="zYeqs-Y39ctY3acqWYT0-10" value="" style="endArrow=none;html=1;rounded=0;exitX=1;exitY=0.5;exitDx=0;exitDy=0;entryX=0.75;entryY=1;entryDx=0;entryDy=0;" parent="1" source="b3NYXewxobcBwOrp7OXC-18" target="2F_DHolSGNnzSSAKhQXL-1" edge="1">
          <mxGeometry width="50" height="50" relative="1" as="geometry">
            <mxPoint x="1820" y="1500" as="sourcePoint" />
            <mxPoint x="1600" y="1400" as="targetPoint" />
          </mxGeometry>
        </mxCell>
        <mxCell id="zYeqs-Y39ctY3acqWYT0-11" value="" style="endArrow=none;html=1;rounded=0;exitX=1;exitY=1;exitDx=0;exitDy=0;" parent="1" edge="1">
          <mxGeometry width="50" height="50" relative="1" as="geometry">
            <mxPoint x="1750" y="1040" as="sourcePoint" />
            <mxPoint x="1510" y="1040" as="targetPoint" />
          </mxGeometry>
        </mxCell>
        <mxCell id="zYeqs-Y39ctY3acqWYT0-12" value="" style="endArrow=none;html=1;rounded=0;exitX=0.5;exitY=0;exitDx=0;exitDy=0;entryX=1;entryY=1;entryDx=0;entryDy=0;" parent="1" source="2F_DHolSGNnzSSAKhQXL-1" edge="1">
          <mxGeometry width="50" height="50" relative="1" as="geometry">
            <mxPoint x="1690" y="1180" as="sourcePoint" />
            <mxPoint x="1470" y="1080" as="targetPoint" />
          </mxGeometry>
        </mxCell>
        <mxCell id="zYeqs-Y39ctY3acqWYT0-13" value="" style="endArrow=none;html=1;rounded=0;entryX=1;entryY=0.5;entryDx=0;entryDy=0;exitX=0;exitY=0;exitDx=0;exitDy=0;" parent="1" source="2F_DHolSGNnzSSAKhQXL-1" target="b3NYXewxobcBwOrp7OXC-80" edge="1">
          <mxGeometry width="50" height="50" relative="1" as="geometry">
            <mxPoint x="1410" y="1260" as="sourcePoint" />
            <mxPoint x="1370" y="1150" as="targetPoint" />
            <Array as="points">
              <mxPoint x="1410" y="1150" />
            </Array>
          </mxGeometry>
        </mxCell>
        <mxCell id="zYeqs-Y39ctY3acqWYT0-14" value="" style="endArrow=none;html=1;rounded=0;entryX=1;entryY=0.5;entryDx=0;entryDy=0;exitX=0;exitY=0.25;exitDx=0;exitDy=0;" parent="1" source="2F_DHolSGNnzSSAKhQXL-1" target="b3NYXewxobcBwOrp7OXC-87" edge="1">
          <mxGeometry width="50" height="50" relative="1" as="geometry">
            <mxPoint x="1060" y="1340" as="sourcePoint" />
            <mxPoint x="1110" y="1290" as="targetPoint" />
          </mxGeometry>
        </mxCell>
        <mxCell id="zYeqs-Y39ctY3acqWYT0-15" value="" style="endArrow=none;html=1;rounded=0;entryX=0.5;entryY=0;entryDx=0;entryDy=0;exitX=0.5;exitY=1;exitDx=0;exitDy=0;" parent="1" source="2F_DHolSGNnzSSAKhQXL-5" target="b3NYXewxobcBwOrp7OXC-80" edge="1">
          <mxGeometry width="50" height="50" relative="1" as="geometry">
            <mxPoint x="1210" y="1140" as="sourcePoint" />
            <mxPoint x="1260" y="1090" as="targetPoint" />
            <Array as="points">
              <mxPoint x="1190" y="1110" />
            </Array>
          </mxGeometry>
        </mxCell>
        <mxCell id="zYeqs-Y39ctY3acqWYT0-16" value="" style="endArrow=none;html=1;rounded=0;entryX=0.5;entryY=1;entryDx=0;entryDy=0;exitX=0.443;exitY=0.002;exitDx=0;exitDy=0;exitPerimeter=0;" parent="1" source="2F_DHolSGNnzSSAKhQXL-5" target="b3NYXewxobcBwOrp7OXC-9" edge="1">
          <mxGeometry width="50" height="50" relative="1" as="geometry">
            <mxPoint x="1070" y="930" as="sourcePoint" />
            <mxPoint x="1120" y="880" as="targetPoint" />
          </mxGeometry>
        </mxCell>
        <mxCell id="zYeqs-Y39ctY3acqWYT0-17" value="" style="endArrow=none;html=1;rounded=0;entryX=0.5;entryY=1;entryDx=0;entryDy=0;exitX=0.5;exitY=0;exitDx=0;exitDy=0;" parent="1" source="2F_DHolSGNnzSSAKhQXL-5" target="b3NYXewxobcBwOrp7OXC-10" edge="1">
          <mxGeometry width="50" height="50" relative="1" as="geometry">
            <mxPoint x="1210" y="930" as="sourcePoint" />
            <mxPoint x="1260" y="880" as="targetPoint" />
          </mxGeometry>
        </mxCell>
        <mxCell id="zYeqs-Y39ctY3acqWYT0-19" value="" style="endArrow=none;html=1;rounded=0;entryX=0;entryY=0.5;entryDx=0;entryDy=0;exitX=0.589;exitY=1.01;exitDx=0;exitDy=0;exitPerimeter=0;" parent="1" source="b3NYXewxobcBwOrp7OXC-97" target="b3NYXewxobcBwOrp7OXC-87" edge="1">
          <mxGeometry width="50" height="50" relative="1" as="geometry">
            <mxPoint x="950" y="1220" as="sourcePoint" />
            <mxPoint x="980" y="1280" as="targetPoint" />
            <Array as="points">
              <mxPoint x="930" y="1285" />
            </Array>
          </mxGeometry>
        </mxCell>
        <mxCell id="zYeqs-Y39ctY3acqWYT0-20" value="" style="endArrow=none;html=1;rounded=0;exitX=0.5;exitY=0;exitDx=0;exitDy=0;" parent="1" source="b3NYXewxobcBwOrp7OXC-44" target="b3NYXewxobcBwOrp7OXC-97" edge="1">
          <mxGeometry width="50" height="50" relative="1" as="geometry">
            <mxPoint x="780" y="1120" as="sourcePoint" />
            <mxPoint x="830" y="1070" as="targetPoint" />
          </mxGeometry>
        </mxCell>
        <mxCell id="zYeqs-Y39ctY3acqWYT0-21" value="" style="endArrow=none;html=1;rounded=0;entryX=0.5;entryY=0;entryDx=0;entryDy=0;exitX=1;exitY=0.5;exitDx=0;exitDy=0;" parent="1" source="b3NYXewxobcBwOrp7OXC-97" target="b3NYXewxobcBwOrp7OXC-46" edge="1">
          <mxGeometry width="50" height="50" relative="1" as="geometry">
            <mxPoint x="900" y="1120" as="sourcePoint" />
            <mxPoint x="950" y="1070" as="targetPoint" />
          </mxGeometry>
        </mxCell>
        <mxCell id="zYeqs-Y39ctY3acqWYT0-22" value="" style="endArrow=none;html=1;rounded=0;entryX=0;entryY=0.5;entryDx=0;entryDy=0;exitX=0.75;exitY=0;exitDx=0;exitDy=0;" parent="1" source="b3NYXewxobcBwOrp7OXC-97" target="b3NYXewxobcBwOrp7OXC-43" edge="1">
          <mxGeometry width="50" height="50" relative="1" as="geometry">
            <mxPoint x="900" y="1050" as="sourcePoint" />
            <mxPoint x="950" y="1000" as="targetPoint" />
          </mxGeometry>
        </mxCell>
        <mxCell id="zYeqs-Y39ctY3acqWYT0-26" value="" style="endArrow=none;html=1;rounded=0;entryX=0.342;entryY=0.016;entryDx=0;entryDy=0;entryPerimeter=0;" parent="1" source="b3NYXewxobcBwOrp7OXC-45" target="b3NYXewxobcBwOrp7OXC-97" edge="1">
          <mxGeometry width="50" height="50" relative="1" as="geometry">
            <mxPoint x="800" y="1050" as="sourcePoint" />
            <mxPoint x="870" y="1040" as="targetPoint" />
          </mxGeometry>
        </mxCell>
        <mxCell id="zYeqs-Y39ctY3acqWYT0-27" value="" style="endArrow=none;html=1;rounded=0;entryX=0.5;entryY=1;entryDx=0;entryDy=0;exitX=0.5;exitY=0;exitDx=0;exitDy=0;" parent="1" source="b3NYXewxobcBwOrp7OXC-97" target="b3NYXewxobcBwOrp7OXC-105" edge="1">
          <mxGeometry width="50" height="50" relative="1" as="geometry">
            <mxPoint x="840" y="1030" as="sourcePoint" />
            <mxPoint x="890" y="980" as="targetPoint" />
          </mxGeometry>
        </mxCell>
        <mxCell id="zYeqs-Y39ctY3acqWYT0-28" value="" style="endArrow=none;html=1;rounded=0;exitX=0.37;exitY=0.141;exitDx=0;exitDy=0;exitPerimeter=0;entryX=0.337;entryY=1.042;entryDx=0;entryDy=0;entryPerimeter=0;" parent="1" source="b3NYXewxobcBwOrp7OXC-129" target="b3NYXewxobcBwOrp7OXC-97" edge="1">
          <mxGeometry width="50" height="50" relative="1" as="geometry">
            <mxPoint x="820" y="1160" as="sourcePoint" />
            <mxPoint x="870" y="1110" as="targetPoint" />
          </mxGeometry>
        </mxCell>
        <mxCell id="zYeqs-Y39ctY3acqWYT0-29" value="" style="endArrow=none;html=1;rounded=0;entryX=0.5;entryY=1;entryDx=0;entryDy=0;exitX=1;exitY=0.5;exitDx=0;exitDy=0;" parent="1" source="2F_DHolSGNnzSSAKhQXL-2" target="b3NYXewxobcBwOrp7OXC-129" edge="1">
          <mxGeometry width="50" height="50" relative="1" as="geometry">
            <mxPoint x="820" y="1330" as="sourcePoint" />
            <mxPoint x="870" y="1280" as="targetPoint" />
            <Array as="points">
              <mxPoint x="860" y="1340" />
            </Array>
          </mxGeometry>
        </mxCell>
        <mxCell id="zYeqs-Y39ctY3acqWYT0-30" value="" style="endArrow=none;html=1;rounded=0;exitX=0.5;exitY=0;exitDx=0;exitDy=0;" parent="1" source="b3NYXewxobcBwOrp7OXC-27" edge="1">
          <mxGeometry width="50" height="50" relative="1" as="geometry">
            <mxPoint x="650" y="1420" as="sourcePoint" />
            <mxPoint x="700" y="1370" as="targetPoint" />
          </mxGeometry>
        </mxCell>
        <mxCell id="zYeqs-Y39ctY3acqWYT0-31" value="" style="endArrow=none;html=1;rounded=0;exitX=0.5;exitY=0;exitDx=0;exitDy=0;entryX=0.5;entryY=1;entryDx=0;entryDy=0;" parent="1" source="b3NYXewxobcBwOrp7OXC-24" target="2F_DHolSGNnzSSAKhQXL-2" edge="1">
          <mxGeometry width="50" height="50" relative="1" as="geometry">
            <mxPoint x="710" y="1450" as="sourcePoint" />
            <mxPoint x="760" y="1400" as="targetPoint" />
          </mxGeometry>
        </mxCell>
        <mxCell id="zYeqs-Y39ctY3acqWYT0-32" value="" style="endArrow=none;html=1;rounded=0;exitX=-0.004;exitY=0.458;exitDx=0;exitDy=0;exitPerimeter=0;entryX=0;entryY=1;entryDx=0;entryDy=0;" parent="1" source="b3NYXewxobcBwOrp7OXC-26" target="2F_DHolSGNnzSSAKhQXL-2" edge="1">
          <mxGeometry width="50" height="50" relative="1" as="geometry">
            <mxPoint x="560" y="1670" as="sourcePoint" />
            <mxPoint x="610" y="1620" as="targetPoint" />
          </mxGeometry>
        </mxCell>
        <mxCell id="zYeqs-Y39ctY3acqWYT0-33" value="" style="endArrow=none;html=1;rounded=0;entryX=1;entryY=1;entryDx=0;entryDy=0;" parent="1" target="2F_DHolSGNnzSSAKhQXL-2" edge="1">
          <mxGeometry width="50" height="50" relative="1" as="geometry">
            <mxPoint x="820" y="1660" as="sourcePoint" />
            <mxPoint x="870" y="1610" as="targetPoint" />
          </mxGeometry>
        </mxCell>
        <mxCell id="zYeqs-Y39ctY3acqWYT0-34" value="" style="endArrow=none;html=1;rounded=0;entryX=0;entryY=0.5;entryDx=0;entryDy=0;exitX=1;exitY=0.5;exitDx=0;exitDy=0;" parent="1" source="b3NYXewxobcBwOrp7OXC-108" target="2F_DHolSGNnzSSAKhQXL-2" edge="1">
          <mxGeometry width="50" height="50" relative="1" as="geometry">
            <mxPoint x="460" y="1120" as="sourcePoint" />
            <mxPoint x="510" y="1070" as="targetPoint" />
            <Array as="points">
              <mxPoint x="640" y="1110" />
            </Array>
          </mxGeometry>
        </mxCell>
        <mxCell id="zYeqs-Y39ctY3acqWYT0-35" value="" style="endArrow=none;html=1;rounded=0;entryX=0;entryY=0.5;entryDx=0;entryDy=0;" parent="1" target="b3NYXewxobcBwOrp7OXC-108" edge="1">
          <mxGeometry width="50" height="50" relative="1" as="geometry">
            <mxPoint x="50" y="1110" as="sourcePoint" />
            <mxPoint x="100" y="1060" as="targetPoint" />
          </mxGeometry>
        </mxCell>
        <mxCell id="zYeqs-Y39ctY3acqWYT0-36" value="" style="endArrow=none;html=1;rounded=0;exitX=0.5;exitY=0;exitDx=0;exitDy=0;entryX=0.75;entryY=1;entryDx=0;entryDy=0;" parent="1" source="b3NYXewxobcBwOrp7OXC-105" target="2F_DHolSGNnzSSAKhQXL-3" edge="1">
          <mxGeometry width="50" height="50" relative="1" as="geometry">
            <mxPoint x="880" y="860" as="sourcePoint" />
            <mxPoint x="930" y="810" as="targetPoint" />
          </mxGeometry>
        </mxCell>
        <mxCell id="zYeqs-Y39ctY3acqWYT0-37" value="" style="endArrow=none;html=1;rounded=0;exitX=0.553;exitY=-0.001;exitDx=0;exitDy=0;exitPerimeter=0;" parent="1" source="2F_DHolSGNnzSSAKhQXL-3" target="b3NYXewxobcBwOrp7OXC-50" edge="1">
          <mxGeometry width="50" height="50" relative="1" as="geometry">
            <mxPoint x="880" y="597.5" as="sourcePoint" />
            <mxPoint x="930" y="547.5" as="targetPoint" />
          </mxGeometry>
        </mxCell>
        <mxCell id="zYeqs-Y39ctY3acqWYT0-38" value="" style="endArrow=none;html=1;rounded=0;exitX=0.5;exitY=0;exitDx=0;exitDy=0;entryX=1;entryY=1;entryDx=0;entryDy=0;" parent="1" source="2F_DHolSGNnzSSAKhQXL-3" target="b3NYXewxobcBwOrp7OXC-49" edge="1">
          <mxGeometry width="50" height="50" relative="1" as="geometry">
            <mxPoint x="860" y="537.5" as="sourcePoint" />
            <mxPoint x="910" y="487.5" as="targetPoint" />
          </mxGeometry>
        </mxCell>
        <mxCell id="zYeqs-Y39ctY3acqWYT0-39" value="" style="endArrow=none;html=1;rounded=0;entryX=0;entryY=0.5;entryDx=0;entryDy=0;exitX=0.499;exitY=0.034;exitDx=0;exitDy=0;exitPerimeter=0;" parent="1" source="2F_DHolSGNnzSSAKhQXL-3" target="b3NYXewxobcBwOrp7OXC-51" edge="1">
          <mxGeometry width="50" height="50" relative="1" as="geometry">
            <mxPoint x="880" y="597.5" as="sourcePoint" />
            <mxPoint x="930" y="547.5" as="targetPoint" />
          </mxGeometry>
        </mxCell>
        <mxCell id="zYeqs-Y39ctY3acqWYT0-40" value="" style="endArrow=none;html=1;rounded=0;entryX=1;entryY=0.5;entryDx=0;entryDy=0;exitX=0.448;exitY=-0.02;exitDx=0;exitDy=0;exitPerimeter=0;" parent="1" source="2F_DHolSGNnzSSAKhQXL-3" target="b3NYXewxobcBwOrp7OXC-48" edge="1">
          <mxGeometry width="50" height="50" relative="1" as="geometry">
            <mxPoint x="880" y="597.5" as="sourcePoint" />
            <mxPoint x="910" y="507.5" as="targetPoint" />
          </mxGeometry>
        </mxCell>
        <mxCell id="zYeqs-Y39ctY3acqWYT0-41" value="" style="endArrow=none;html=1;rounded=0;entryX=0.433;entryY=1.02;entryDx=0;entryDy=0;entryPerimeter=0;exitX=0.496;exitY=0.044;exitDx=0;exitDy=0;exitPerimeter=0;" parent="1" source="2F_DHolSGNnzSSAKhQXL-3" target="b3NYXewxobcBwOrp7OXC-47" edge="1">
          <mxGeometry width="50" height="50" relative="1" as="geometry">
            <mxPoint x="880" y="597.5" as="sourcePoint" />
            <mxPoint x="930" y="547.5" as="targetPoint" />
          </mxGeometry>
        </mxCell>
        <mxCell id="yYhjXtK-f7d1NUz5v1KG-1" value="" style="endArrow=none;html=1;rounded=0;entryX=0.417;entryY=0.988;entryDx=0;entryDy=0;entryPerimeter=0;exitX=0.5;exitY=0;exitDx=0;exitDy=0;" parent="1" source="2F_DHolSGNnzSSAKhQXL-27" target="2F_DHolSGNnzSSAKhQXL-9" edge="1">
          <mxGeometry width="50" height="50" relative="1" as="geometry">
            <mxPoint x="50" y="1290" as="sourcePoint" />
            <mxPoint x="100" y="1240" as="targetPoint" />
          </mxGeometry>
        </mxCell>
        <mxCell id="yYhjXtK-f7d1NUz5v1KG-2" value="" style="endArrow=none;html=1;rounded=0;labelBackgroundColor=default;strokeColor=default;align=center;verticalAlign=middle;fontFamily=Helvetica;fontSize=11;fontColor=default;shape=connector;entryX=0.75;entryY=1;entryDx=0;entryDy=0;exitX=0;exitY=0;exitDx=0;exitDy=0;" parent="1" source="2F_DHolSGNnzSSAKhQXL-28" target="2F_DHolSGNnzSSAKhQXL-9" edge="1">
          <mxGeometry width="50" height="50" relative="1" as="geometry">
            <mxPoint x="50" y="1290" as="sourcePoint" />
            <mxPoint x="100" y="1240" as="targetPoint" />
          </mxGeometry>
        </mxCell>
        <mxCell id="yYhjXtK-f7d1NUz5v1KG-3" value="" style="endArrow=none;html=1;rounded=0;labelBackgroundColor=default;strokeColor=default;align=center;verticalAlign=middle;fontFamily=Helvetica;fontSize=11;fontColor=default;shape=connector;entryX=0.074;entryY=1.001;entryDx=0;entryDy=0;entryPerimeter=0;exitX=0.432;exitY=-0.004;exitDx=0;exitDy=0;exitPerimeter=0;" parent="1" source="2F_DHolSGNnzSSAKhQXL-26" target="2F_DHolSGNnzSSAKhQXL-9" edge="1">
          <mxGeometry width="50" height="50" relative="1" as="geometry">
            <mxPoint x="-120" y="1190" as="sourcePoint" />
            <mxPoint x="-70" y="1140" as="targetPoint" />
          </mxGeometry>
        </mxCell>
        <mxCell id="yYhjXtK-f7d1NUz5v1KG-4" value="" style="endArrow=none;html=1;rounded=0;labelBackgroundColor=default;strokeColor=default;align=center;verticalAlign=middle;fontFamily=Helvetica;fontSize=11;fontColor=default;shape=connector;exitX=0.5;exitY=0;exitDx=0;exitDy=0;entryX=0;entryY=0.5;entryDx=0;entryDy=0;" parent="1" source="2F_DHolSGNnzSSAKhQXL-25" target="2F_DHolSGNnzSSAKhQXL-9" edge="1">
          <mxGeometry width="50" height="50" relative="1" as="geometry">
            <mxPoint x="-320" y="1170" as="sourcePoint" />
            <mxPoint x="-270" y="1120" as="targetPoint" />
          </mxGeometry>
        </mxCell>
        <mxCell id="yYhjXtK-f7d1NUz5v1KG-5" value="" style="endArrow=none;html=1;rounded=0;labelBackgroundColor=default;strokeColor=default;align=center;verticalAlign=middle;fontFamily=Helvetica;fontSize=11;fontColor=default;shape=connector;exitX=0.5;exitY=0;exitDx=0;exitDy=0;entryX=0;entryY=0.75;entryDx=0;entryDy=0;" parent="1" source="2F_DHolSGNnzSSAKhQXL-29" target="2F_DHolSGNnzSSAKhQXL-9" edge="1">
          <mxGeometry width="50" height="50" relative="1" as="geometry">
            <mxPoint x="50" y="1290" as="sourcePoint" />
            <mxPoint x="100" y="1240" as="targetPoint" />
            <Array as="points">
              <mxPoint x="-180" y="1190" />
            </Array>
          </mxGeometry>
        </mxCell>
        <mxCell id="yYhjXtK-f7d1NUz5v1KG-6" value="" style="endArrow=none;html=1;rounded=0;labelBackgroundColor=default;strokeColor=default;align=center;verticalAlign=middle;fontFamily=Helvetica;fontSize=11;fontColor=default;shape=connector;exitX=0.5;exitY=0;exitDx=0;exitDy=0;entryX=0.25;entryY=1;entryDx=0;entryDy=0;" parent="1" source="2F_DHolSGNnzSSAKhQXL-30" target="2F_DHolSGNnzSSAKhQXL-9" edge="1">
          <mxGeometry width="50" height="50" relative="1" as="geometry">
            <mxPoint x="-50" y="1290" as="sourcePoint" />
            <mxPoint y="1240" as="targetPoint" />
          </mxGeometry>
        </mxCell>
        <mxCell id="yYhjXtK-f7d1NUz5v1KG-7" value="" style="endArrow=none;html=1;rounded=0;labelBackgroundColor=default;strokeColor=default;align=center;verticalAlign=middle;fontFamily=Helvetica;fontSize=11;fontColor=default;shape=connector;exitX=0.5;exitY=0;exitDx=0;exitDy=0;entryX=1;entryY=1;entryDx=0;entryDy=0;" parent="1" source="2F_DHolSGNnzSSAKhQXL-31" target="2F_DHolSGNnzSSAKhQXL-9" edge="1">
          <mxGeometry width="50" height="50" relative="1" as="geometry">
            <mxPoint x="40" y="1310" as="sourcePoint" />
            <mxPoint x="90" y="1260" as="targetPoint" />
            <Array as="points">
              <mxPoint x="100" y="1220" />
            </Array>
          </mxGeometry>
        </mxCell>
        <mxCell id="yYhjXtK-f7d1NUz5v1KG-8" value="" style="endArrow=none;html=1;rounded=0;labelBackgroundColor=default;strokeColor=default;align=center;verticalAlign=middle;fontFamily=Helvetica;fontSize=11;fontColor=default;shape=connector;exitX=0.813;exitY=0.064;exitDx=0;exitDy=0;exitPerimeter=0;entryX=0.5;entryY=1;entryDx=0;entryDy=0;" parent="1" source="2F_DHolSGNnzSSAKhQXL-32" target="2F_DHolSGNnzSSAKhQXL-9" edge="1">
          <mxGeometry width="50" height="50" relative="1" as="geometry">
            <mxPoint x="380" y="1360" as="sourcePoint" />
            <mxPoint x="430" y="1310" as="targetPoint" />
          </mxGeometry>
        </mxCell>
        <mxCell id="yYhjXtK-f7d1NUz5v1KG-9" value="" style="endArrow=none;html=1;rounded=0;labelBackgroundColor=default;strokeColor=default;align=center;verticalAlign=middle;fontFamily=Helvetica;fontSize=11;fontColor=default;shape=connector;exitX=0;exitY=0;exitDx=0;exitDy=0;entryX=0;entryY=1;entryDx=0;entryDy=0;" parent="1" source="2F_DHolSGNnzSSAKhQXL-34" target="2F_DHolSGNnzSSAKhQXL-9" edge="1">
          <mxGeometry width="50" height="50" relative="1" as="geometry">
            <mxPoint x="450" y="1320" as="sourcePoint" />
            <mxPoint x="500" y="1270" as="targetPoint" />
            <Array as="points">
              <mxPoint x="-20" y="1260" />
            </Array>
          </mxGeometry>
        </mxCell>
        <mxCell id="yYhjXtK-f7d1NUz5v1KG-10" value="" style="endArrow=none;html=1;rounded=0;labelBackgroundColor=default;strokeColor=default;align=center;verticalAlign=middle;fontFamily=Helvetica;fontSize=11;fontColor=default;shape=connector;exitX=1;exitY=0;exitDx=0;exitDy=0;entryX=0.322;entryY=0.975;entryDx=0;entryDy=0;entryPerimeter=0;" parent="1" source="2F_DHolSGNnzSSAKhQXL-33" target="2F_DHolSGNnzSSAKhQXL-9" edge="1">
          <mxGeometry width="50" height="50" relative="1" as="geometry">
            <mxPoint x="-10" y="1420" as="sourcePoint" />
            <mxPoint x="40" y="1370" as="targetPoint" />
            <Array as="points">
              <mxPoint x="30" y="1350" />
              <mxPoint x="-40" y="1250" />
            </Array>
          </mxGeometry>
        </mxCell>
        <mxCell id="yYhjXtK-f7d1NUz5v1KG-11" value="" style="endArrow=none;html=1;rounded=0;labelBackgroundColor=default;strokeColor=default;align=center;verticalAlign=middle;fontFamily=Helvetica;fontSize=11;fontColor=default;shape=connector;exitX=0.5;exitY=0;exitDx=0;exitDy=0;entryX=0;entryY=1;entryDx=0;entryDy=0;" parent="1" source="2F_DHolSGNnzSSAKhQXL-35" target="2F_DHolSGNnzSSAKhQXL-9" edge="1">
          <mxGeometry width="50" height="50" relative="1" as="geometry">
            <mxPoint x="-190" y="1560" as="sourcePoint" />
            <mxPoint x="-140" y="1510" as="targetPoint" />
            <Array as="points">
              <mxPoint x="-110" y="1340" />
              <mxPoint x="-50" y="1230" />
            </Array>
          </mxGeometry>
        </mxCell>
        <mxCell id="yYhjXtK-f7d1NUz5v1KG-13" value="" style="endArrow=none;html=1;rounded=0;labelBackgroundColor=default;strokeColor=default;align=center;verticalAlign=middle;fontFamily=Helvetica;fontSize=11;fontColor=default;shape=connector;exitX=0.5;exitY=0;exitDx=0;exitDy=0;entryX=1;entryY=1;entryDx=0;entryDy=0;" parent="1" source="2F_DHolSGNnzSSAKhQXL-36" target="2F_DHolSGNnzSSAKhQXL-9" edge="1">
          <mxGeometry width="50" height="50" relative="1" as="geometry">
            <mxPoint x="300" y="1590" as="sourcePoint" />
            <mxPoint x="350" y="1540" as="targetPoint" />
            <Array as="points">
              <mxPoint x="40" y="1350" />
              <mxPoint x="110" y="1210" />
            </Array>
          </mxGeometry>
        </mxCell>
        <mxCell id="yYhjXtK-f7d1NUz5v1KG-14" value="" style="endArrow=none;html=1;rounded=0;labelBackgroundColor=default;strokeColor=default;align=center;verticalAlign=middle;fontFamily=Helvetica;fontSize=11;fontColor=default;shape=connector;exitX=0.5;exitY=0;exitDx=0;exitDy=0;" parent="1" source="2F_DHolSGNnzSSAKhQXL-9" target="b3NYXewxobcBwOrp7OXC-111" edge="1">
          <mxGeometry width="50" height="50" relative="1" as="geometry">
            <mxPoint y="1030" as="sourcePoint" />
            <mxPoint x="50" y="980" as="targetPoint" />
          </mxGeometry>
        </mxCell>
        <mxCell id="yYhjXtK-f7d1NUz5v1KG-15" value="" style="endArrow=none;html=1;rounded=0;labelBackgroundColor=default;strokeColor=default;align=center;verticalAlign=middle;fontFamily=Helvetica;fontSize=11;fontColor=default;shape=connector;entryX=0;entryY=0.5;entryDx=0;entryDy=0;exitX=0.934;exitY=0.537;exitDx=0;exitDy=0;exitPerimeter=0;" parent="1" source="b3NYXewxobcBwOrp7OXC-111" target="b3NYXewxobcBwOrp7OXC-67" edge="1">
          <mxGeometry width="50" height="50" relative="1" as="geometry">
            <mxPoint x="90" y="900" as="sourcePoint" />
            <mxPoint x="140" y="850" as="targetPoint" />
          </mxGeometry>
        </mxCell>
        <mxCell id="yYhjXtK-f7d1NUz5v1KG-16" value="" style="endArrow=none;html=1;rounded=0;labelBackgroundColor=default;strokeColor=default;align=center;verticalAlign=middle;fontFamily=Helvetica;fontSize=11;fontColor=default;shape=connector;entryX=0;entryY=0.5;entryDx=0;entryDy=0;exitX=0.924;exitY=0.542;exitDx=0;exitDy=0;exitPerimeter=0;" parent="1" source="b3NYXewxobcBwOrp7OXC-111" target="b3NYXewxobcBwOrp7OXC-68" edge="1">
          <mxGeometry width="50" height="50" relative="1" as="geometry">
            <mxPoint x="50" y="920" as="sourcePoint" />
            <mxPoint x="100" y="870" as="targetPoint" />
          </mxGeometry>
        </mxCell>
        <mxCell id="yYhjXtK-f7d1NUz5v1KG-17" value="" style="endArrow=none;html=1;rounded=0;labelBackgroundColor=default;strokeColor=default;align=center;verticalAlign=middle;fontFamily=Helvetica;fontSize=11;fontColor=default;shape=connector;entryX=0;entryY=0.5;entryDx=0;entryDy=0;exitX=1;exitY=0.5;exitDx=0;exitDy=0;" parent="1" source="b3NYXewxobcBwOrp7OXC-61" target="b3NYXewxobcBwOrp7OXC-111" edge="1">
          <mxGeometry width="50" height="50" relative="1" as="geometry">
            <mxPoint x="-220" y="900" as="sourcePoint" />
            <mxPoint x="-170" y="850" as="targetPoint" />
          </mxGeometry>
        </mxCell>
        <mxCell id="yYhjXtK-f7d1NUz5v1KG-18" value="" style="endArrow=none;html=1;rounded=0;labelBackgroundColor=default;strokeColor=default;align=center;verticalAlign=middle;fontFamily=Helvetica;fontSize=11;fontColor=default;shape=connector;exitX=0.5;exitY=0;exitDx=0;exitDy=0;entryX=0.5;entryY=1;entryDx=0;entryDy=0;" parent="1" source="b3NYXewxobcBwOrp7OXC-61" target="b3NYXewxobcBwOrp7OXC-64" edge="1">
          <mxGeometry width="50" height="50" relative="1" as="geometry">
            <mxPoint x="-280" y="730" as="sourcePoint" />
            <mxPoint x="-230" y="680" as="targetPoint" />
          </mxGeometry>
        </mxCell>
        <mxCell id="yYhjXtK-f7d1NUz5v1KG-19" value="" style="endArrow=none;html=1;rounded=0;labelBackgroundColor=default;strokeColor=default;align=center;verticalAlign=middle;fontFamily=Helvetica;fontSize=11;fontColor=default;shape=connector;entryX=0.5;entryY=0;entryDx=0;entryDy=0;exitX=0.5;exitY=1;exitDx=0;exitDy=0;" parent="1" source="b3NYXewxobcBwOrp7OXC-63" target="b3NYXewxobcBwOrp7OXC-61" edge="1">
          <mxGeometry width="50" height="50" relative="1" as="geometry">
            <mxPoint x="-600" y="810" as="sourcePoint" />
            <mxPoint x="-550" y="760" as="targetPoint" />
          </mxGeometry>
        </mxCell>
        <mxCell id="yYhjXtK-f7d1NUz5v1KG-20" value="" style="endArrow=none;html=1;rounded=0;labelBackgroundColor=default;strokeColor=default;align=center;verticalAlign=middle;fontFamily=Helvetica;fontSize=11;fontColor=default;shape=connector;entryX=0.5;entryY=1;entryDx=0;entryDy=0;exitX=0;exitY=0;exitDx=0;exitDy=0;" parent="1" source="b3NYXewxobcBwOrp7OXC-61" target="b3NYXewxobcBwOrp7OXC-65" edge="1">
          <mxGeometry width="50" height="50" relative="1" as="geometry">
            <mxPoint x="-630" y="730" as="sourcePoint" />
            <mxPoint x="-580" y="680" as="targetPoint" />
          </mxGeometry>
        </mxCell>
        <mxCell id="yYhjXtK-f7d1NUz5v1KG-21" value="" style="endArrow=none;html=1;rounded=0;labelBackgroundColor=default;strokeColor=default;align=center;verticalAlign=middle;fontFamily=Helvetica;fontSize=11;fontColor=default;shape=connector;entryX=0.5;entryY=1;entryDx=0;entryDy=0;exitX=1;exitY=0;exitDx=0;exitDy=0;" parent="1" source="b3NYXewxobcBwOrp7OXC-61" target="b3NYXewxobcBwOrp7OXC-66" edge="1">
          <mxGeometry width="50" height="50" relative="1" as="geometry">
            <mxPoint x="-220" y="760" as="sourcePoint" />
            <mxPoint x="-170" y="710" as="targetPoint" />
          </mxGeometry>
        </mxCell>
        <mxCell id="yYhjXtK-f7d1NUz5v1KG-22" value="" style="endArrow=none;html=1;rounded=0;labelBackgroundColor=default;strokeColor=default;align=center;verticalAlign=middle;fontFamily=Helvetica;fontSize=11;fontColor=default;shape=connector;exitX=1;exitY=0.5;exitDx=0;exitDy=0;entryX=0.25;entryY=0;entryDx=0;entryDy=0;" parent="1" source="2F_DHolSGNnzSSAKhQXL-10" target="2F_DHolSGNnzSSAKhQXL-7" edge="1">
          <mxGeometry width="50" height="50" relative="1" as="geometry">
            <mxPoint x="1670" y="240" as="sourcePoint" />
            <mxPoint x="1705" y="340" as="targetPoint" />
          </mxGeometry>
        </mxCell>
        <mxCell id="yYhjXtK-f7d1NUz5v1KG-23" value="" style="endArrow=none;html=1;rounded=0;labelBackgroundColor=default;strokeColor=default;align=center;verticalAlign=middle;fontFamily=Helvetica;fontSize=11;fontColor=default;shape=connector;exitX=1;exitY=0.5;exitDx=0;exitDy=0;entryX=0.066;entryY=0.013;entryDx=0;entryDy=0;entryPerimeter=0;" parent="1" source="2F_DHolSGNnzSSAKhQXL-12" target="2F_DHolSGNnzSSAKhQXL-7" edge="1">
          <mxGeometry width="50" height="50" relative="1" as="geometry">
            <mxPoint x="1610" y="400" as="sourcePoint" />
            <mxPoint x="1705" y="340" as="targetPoint" />
          </mxGeometry>
        </mxCell>
        <mxCell id="yYhjXtK-f7d1NUz5v1KG-24" value="" style="endArrow=none;html=1;rounded=0;labelBackgroundColor=default;strokeColor=default;align=center;verticalAlign=middle;fontFamily=Helvetica;fontSize=11;fontColor=default;shape=connector;exitX=1;exitY=0.5;exitDx=0;exitDy=0;entryX=0;entryY=1;entryDx=0;entryDy=0;" parent="1" source="2F_DHolSGNnzSSAKhQXL-17" target="2F_DHolSGNnzSSAKhQXL-7" edge="1">
          <mxGeometry width="50" height="50" relative="1" as="geometry">
            <mxPoint x="1740" y="642.5" as="sourcePoint" />
            <mxPoint x="1790" y="592.5" as="targetPoint" />
          </mxGeometry>
        </mxCell>
        <mxCell id="yYhjXtK-f7d1NUz5v1KG-25" value="" style="endArrow=none;html=1;rounded=0;labelBackgroundColor=default;strokeColor=default;align=center;verticalAlign=middle;fontFamily=Helvetica;fontSize=11;fontColor=default;shape=connector;exitX=1;exitY=0.5;exitDx=0;exitDy=0;entryX=0;entryY=1;entryDx=0;entryDy=0;" parent="1" source="2F_DHolSGNnzSSAKhQXL-16" target="2F_DHolSGNnzSSAKhQXL-7" edge="1">
          <mxGeometry width="50" height="50" relative="1" as="geometry">
            <mxPoint x="1710" y="572.5" as="sourcePoint" />
            <mxPoint x="1760" y="522.5" as="targetPoint" />
          </mxGeometry>
        </mxCell>
        <mxCell id="yYhjXtK-f7d1NUz5v1KG-26" value="" style="endArrow=none;html=1;rounded=0;labelBackgroundColor=default;strokeColor=default;align=center;verticalAlign=middle;fontFamily=Helvetica;fontSize=11;fontColor=default;shape=connector;exitX=1;exitY=0.5;exitDx=0;exitDy=0;entryX=0;entryY=0.75;entryDx=0;entryDy=0;" parent="1" source="2F_DHolSGNnzSSAKhQXL-15" target="2F_DHolSGNnzSSAKhQXL-7" edge="1">
          <mxGeometry width="50" height="50" relative="1" as="geometry">
            <mxPoint x="1720" y="542.5" as="sourcePoint" />
            <mxPoint x="1770" y="492.5" as="targetPoint" />
          </mxGeometry>
        </mxCell>
        <mxCell id="yYhjXtK-f7d1NUz5v1KG-27" value="" style="endArrow=none;html=1;rounded=0;labelBackgroundColor=default;strokeColor=default;align=center;verticalAlign=middle;fontFamily=Helvetica;fontSize=11;fontColor=default;shape=connector;exitX=1.015;exitY=0.634;exitDx=0;exitDy=0;exitPerimeter=0;entryX=0;entryY=0.25;entryDx=0;entryDy=0;" parent="1" source="2F_DHolSGNnzSSAKhQXL-13" target="2F_DHolSGNnzSSAKhQXL-7" edge="1">
          <mxGeometry width="50" height="50" relative="1" as="geometry">
            <mxPoint x="1630" y="350" as="sourcePoint" />
            <mxPoint x="1705" y="355" as="targetPoint" />
          </mxGeometry>
        </mxCell>
        <mxCell id="yYhjXtK-f7d1NUz5v1KG-28" value="" style="endArrow=none;html=1;rounded=0;labelBackgroundColor=default;strokeColor=default;align=center;verticalAlign=middle;fontFamily=Helvetica;fontSize=11;fontColor=default;shape=connector;entryX=0;entryY=0.5;entryDx=0;entryDy=0;" parent="1" source="2F_DHolSGNnzSSAKhQXL-14" target="2F_DHolSGNnzSSAKhQXL-7" edge="1">
          <mxGeometry width="50" height="50" relative="1" as="geometry">
            <mxPoint x="1590" y="380" as="sourcePoint" />
            <mxPoint x="1670" y="370" as="targetPoint" />
          </mxGeometry>
        </mxCell>
        <mxCell id="yYhjXtK-f7d1NUz5v1KG-29" value="" style="endArrow=none;html=1;rounded=0;labelBackgroundColor=default;strokeColor=default;align=center;verticalAlign=middle;fontFamily=Helvetica;fontSize=11;fontColor=default;shape=connector;exitX=1;exitY=0.5;exitDx=0;exitDy=0;entryX=0.015;entryY=0.586;entryDx=0;entryDy=0;entryPerimeter=0;" parent="1" source="yYhjXtK-f7d1NUz5v1KG-42" target="2F_DHolSGNnzSSAKhQXL-8" edge="1">
          <mxGeometry width="50" height="50" relative="1" as="geometry">
            <mxPoint x="2060" y="320" as="sourcePoint" />
            <mxPoint x="2110" y="270" as="targetPoint" />
          </mxGeometry>
        </mxCell>
        <mxCell id="yYhjXtK-f7d1NUz5v1KG-30" value="" style="endArrow=none;html=1;rounded=0;labelBackgroundColor=default;strokeColor=default;align=center;verticalAlign=middle;fontFamily=Helvetica;fontSize=11;fontColor=default;shape=connector;entryX=0.5;entryY=1;entryDx=0;entryDy=0;exitX=0;exitY=0;exitDx=0;exitDy=0;" parent="1" source="2F_DHolSGNnzSSAKhQXL-8" target="2F_DHolSGNnzSSAKhQXL-55" edge="1">
          <mxGeometry width="50" height="50" relative="1" as="geometry">
            <mxPoint x="1900" y="180" as="sourcePoint" />
            <mxPoint x="1950" y="130" as="targetPoint" />
          </mxGeometry>
        </mxCell>
        <mxCell id="yYhjXtK-f7d1NUz5v1KG-31" value="" style="endArrow=none;html=1;rounded=0;labelBackgroundColor=default;strokeColor=default;align=center;verticalAlign=middle;fontFamily=Helvetica;fontSize=11;fontColor=default;shape=connector;entryX=0.5;entryY=1;entryDx=0;entryDy=0;exitX=1;exitY=0;exitDx=0;exitDy=0;" parent="1" source="2F_DHolSGNnzSSAKhQXL-8" target="2F_DHolSGNnzSSAKhQXL-54" edge="1">
          <mxGeometry width="50" height="50" relative="1" as="geometry">
            <mxPoint x="2130" y="190" as="sourcePoint" />
            <mxPoint x="2180" y="140" as="targetPoint" />
          </mxGeometry>
        </mxCell>
        <mxCell id="yYhjXtK-f7d1NUz5v1KG-32" value="" style="endArrow=none;html=1;rounded=0;labelBackgroundColor=default;strokeColor=default;align=center;verticalAlign=middle;fontFamily=Helvetica;fontSize=11;fontColor=default;shape=connector;entryX=0.579;entryY=0.999;entryDx=0;entryDy=0;entryPerimeter=0;" parent="1" source="2F_DHolSGNnzSSAKhQXL-8" target="2F_DHolSGNnzSSAKhQXL-53" edge="1">
          <mxGeometry width="50" height="50" relative="1" as="geometry">
            <mxPoint x="1990" y="180" as="sourcePoint" />
            <mxPoint x="2040" y="130" as="targetPoint" />
          </mxGeometry>
        </mxCell>
        <mxCell id="yYhjXtK-f7d1NUz5v1KG-33" value="" style="endArrow=none;html=1;rounded=0;labelBackgroundColor=default;strokeColor=default;align=center;verticalAlign=middle;fontFamily=Helvetica;fontSize=11;fontColor=default;shape=connector;entryX=0.5;entryY=1;entryDx=0;entryDy=0;exitX=0.25;exitY=0;exitDx=0;exitDy=0;" parent="1" source="2F_DHolSGNnzSSAKhQXL-8" target="2F_DHolSGNnzSSAKhQXL-52" edge="1">
          <mxGeometry width="50" height="50" relative="1" as="geometry">
            <mxPoint x="1980" y="190" as="sourcePoint" />
            <mxPoint x="2030" y="140" as="targetPoint" />
          </mxGeometry>
        </mxCell>
        <mxCell id="yYhjXtK-f7d1NUz5v1KG-34" value="" style="endArrow=none;html=1;rounded=0;labelBackgroundColor=default;strokeColor=default;align=center;verticalAlign=middle;fontFamily=Helvetica;fontSize=11;fontColor=default;shape=connector;entryX=0.5;entryY=1;entryDx=0;entryDy=0;" parent="1" source="2F_DHolSGNnzSSAKhQXL-8" target="2F_DHolSGNnzSSAKhQXL-58" edge="1">
          <mxGeometry width="50" height="50" relative="1" as="geometry">
            <mxPoint x="2010" y="50" as="sourcePoint" />
            <mxPoint x="2060" as="targetPoint" />
            <Array as="points">
              <mxPoint x="2080" y="80" />
            </Array>
          </mxGeometry>
        </mxCell>
        <mxCell id="yYhjXtK-f7d1NUz5v1KG-35" value="" style="endArrow=none;html=1;rounded=0;labelBackgroundColor=default;strokeColor=default;align=center;verticalAlign=middle;fontFamily=Helvetica;fontSize=11;fontColor=default;shape=connector;entryX=0.5;entryY=1;entryDx=0;entryDy=0;exitX=0.839;exitY=-0.009;exitDx=0;exitDy=0;exitPerimeter=0;" parent="1" source="2F_DHolSGNnzSSAKhQXL-8" target="b3NYXewxobcBwOrp7OXC-1" edge="1">
          <mxGeometry width="50" height="50" relative="1" as="geometry">
            <mxPoint x="2240" y="30" as="sourcePoint" />
            <mxPoint x="2290" y="-20" as="targetPoint" />
            <Array as="points">
              <mxPoint x="2210" y="70" />
            </Array>
          </mxGeometry>
        </mxCell>
        <mxCell id="yYhjXtK-f7d1NUz5v1KG-36" value="" style="endArrow=none;html=1;rounded=0;labelBackgroundColor=default;strokeColor=default;align=center;verticalAlign=middle;fontFamily=Helvetica;fontSize=11;fontColor=default;shape=connector;entryX=0.5;entryY=1;entryDx=0;entryDy=0;exitX=0.25;exitY=0;exitDx=0;exitDy=0;" parent="1" source="2F_DHolSGNnzSSAKhQXL-8" target="2F_DHolSGNnzSSAKhQXL-57" edge="1">
          <mxGeometry width="50" height="50" relative="1" as="geometry">
            <mxPoint x="1940" y="50" as="sourcePoint" />
            <mxPoint x="1990" as="targetPoint" />
            <Array as="points">
              <mxPoint x="2060" y="40" />
            </Array>
          </mxGeometry>
        </mxCell>
        <mxCell id="yYhjXtK-f7d1NUz5v1KG-37" value="" style="endArrow=none;html=1;rounded=0;labelBackgroundColor=default;strokeColor=default;align=center;verticalAlign=middle;fontFamily=Helvetica;fontSize=11;fontColor=default;shape=connector;entryX=1;entryY=1;entryDx=0;entryDy=0;exitX=0;exitY=0;exitDx=0;exitDy=0;" parent="1" source="2F_DHolSGNnzSSAKhQXL-8" target="2F_DHolSGNnzSSAKhQXL-59" edge="1">
          <mxGeometry width="50" height="50" relative="1" as="geometry">
            <mxPoint x="1810" y="50" as="sourcePoint" />
            <mxPoint x="1860" as="targetPoint" />
            <Array as="points">
              <mxPoint x="1930" y="80" />
              <mxPoint x="1930" y="40" />
            </Array>
          </mxGeometry>
        </mxCell>
        <mxCell id="yYhjXtK-f7d1NUz5v1KG-38" value="" style="endArrow=none;html=1;rounded=0;labelBackgroundColor=default;strokeColor=default;align=center;verticalAlign=middle;fontFamily=Helvetica;fontSize=11;fontColor=default;shape=connector;entryX=0.5;entryY=1;entryDx=0;entryDy=0;exitX=1;exitY=0;exitDx=0;exitDy=0;" parent="1" source="2F_DHolSGNnzSSAKhQXL-8" target="2F_DHolSGNnzSSAKhQXL-56" edge="1">
          <mxGeometry width="50" height="50" relative="1" as="geometry">
            <mxPoint x="2340" y="150" as="sourcePoint" />
            <mxPoint x="2390" y="100" as="targetPoint" />
            <Array as="points">
              <mxPoint x="2330" y="100" />
            </Array>
          </mxGeometry>
        </mxCell>
        <mxCell id="yYhjXtK-f7d1NUz5v1KG-39" value="M" style="text;html=1;strokeColor=none;fillColor=none;align=center;verticalAlign=middle;whiteSpace=wrap;rounded=0;fontFamily=Helvetica;fontSize=11;fontColor=default;" parent="1" vertex="1">
          <mxGeometry x="1970" y="250" width="60" height="30" as="geometry" />
        </mxCell>
        <mxCell id="yYhjXtK-f7d1NUz5v1KG-41" value="1" style="text;html=1;strokeColor=none;fillColor=none;align=center;verticalAlign=middle;whiteSpace=wrap;rounded=0;fontFamily=Helvetica;fontSize=11;fontColor=default;" parent="1" vertex="1">
          <mxGeometry x="1805" y="340" width="60" height="30" as="geometry" />
        </mxCell>
        <mxCell id="yYhjXtK-f7d1NUz5v1KG-43" value="M" style="text;html=1;strokeColor=none;fillColor=none;align=center;verticalAlign=middle;whiteSpace=wrap;rounded=0;fontFamily=Helvetica;fontSize=11;fontColor=default;" parent="1" vertex="1">
          <mxGeometry x="1880" y="267.5" width="60" height="40" as="geometry" />
        </mxCell>
        <mxCell id="yYhjXtK-f7d1NUz5v1KG-44" value="1" style="text;html=1;strokeColor=none;fillColor=none;align=center;verticalAlign=middle;whiteSpace=wrap;rounded=0;fontFamily=Helvetica;fontSize=11;fontColor=default;" parent="1" vertex="1">
          <mxGeometry x="-10" y="1040" width="60" height="30" as="geometry" />
        </mxCell>
        <mxCell id="yYhjXtK-f7d1NUz5v1KG-45" value="M" style="text;html=1;strokeColor=none;fillColor=none;align=center;verticalAlign=middle;whiteSpace=wrap;rounded=0;fontFamily=Helvetica;fontSize=11;fontColor=default;" parent="1" vertex="1">
          <mxGeometry x="-120" y="780" width="60" height="30" as="geometry" />
        </mxCell>
        <mxCell id="yYhjXtK-f7d1NUz5v1KG-50" value="M" style="text;html=1;strokeColor=none;fillColor=none;align=center;verticalAlign=middle;whiteSpace=wrap;rounded=0;fontFamily=Helvetica;fontSize=11;fontColor=default;" parent="1" vertex="1">
          <mxGeometry y="865" width="60" height="30" as="geometry" />
        </mxCell>
        <mxCell id="yYhjXtK-f7d1NUz5v1KG-51" value="1" style="text;html=1;strokeColor=none;fillColor=none;align=center;verticalAlign=middle;whiteSpace=wrap;rounded=0;fontFamily=Helvetica;fontSize=11;fontColor=default;" parent="1" vertex="1">
          <mxGeometry x="-300" y="830" width="60" height="30" as="geometry" />
        </mxCell>
        <mxCell id="yYhjXtK-f7d1NUz5v1KG-52" value="1" style="text;html=1;strokeColor=none;fillColor=none;align=center;verticalAlign=middle;whiteSpace=wrap;rounded=0;fontFamily=Helvetica;fontSize=11;fontColor=default;" parent="1" vertex="1">
          <mxGeometry x="325" y="1080" width="60" height="30" as="geometry" />
        </mxCell>
        <mxCell id="yYhjXtK-f7d1NUz5v1KG-55" value="N" style="text;html=1;strokeColor=none;fillColor=none;align=center;verticalAlign=middle;whiteSpace=wrap;rounded=0;fontFamily=Helvetica;fontSize=11;fontColor=default;" parent="1" vertex="1">
          <mxGeometry x="460" y="1110" width="60" height="30" as="geometry" />
        </mxCell>
        <mxCell id="yYhjXtK-f7d1NUz5v1KG-56" value="&lt;u&gt;id_cupon&lt;/u&gt;" style="ellipse;whiteSpace=wrap;html=1;fontFamily=Helvetica;fontSize=11;fillColor=#e1d5e7;strokeColor=#9673a6;" parent="1" vertex="1">
          <mxGeometry x="-440" y="510" width="120" height="80" as="geometry" />
        </mxCell>
        <mxCell id="yYhjXtK-f7d1NUz5v1KG-57" value="" style="endArrow=none;html=1;rounded=0;labelBackgroundColor=default;strokeColor=default;align=center;verticalAlign=middle;fontFamily=Helvetica;fontSize=11;fontColor=default;shape=connector;exitX=0.5;exitY=0;exitDx=0;exitDy=0;entryX=0.5;entryY=1;entryDx=0;entryDy=0;" parent="1" source="b3NYXewxobcBwOrp7OXC-61" target="yYhjXtK-f7d1NUz5v1KG-56" edge="1">
          <mxGeometry width="50" height="50" relative="1" as="geometry">
            <mxPoint x="-100" y="740" as="sourcePoint" />
            <mxPoint x="-50" y="690" as="targetPoint" />
          </mxGeometry>
        </mxCell>
        <mxCell id="yYhjXtK-f7d1NUz5v1KG-58" value="&lt;u&gt;id_utlizado&lt;/u&gt;" style="ellipse;whiteSpace=wrap;html=1;fontFamily=Helvetica;fontSize=11;fillColor=#e1d5e7;strokeColor=#9673a6;" parent="1" vertex="1">
          <mxGeometry x="140" y="657.5" width="120" height="80" as="geometry" />
        </mxCell>
        <mxCell id="yYhjXtK-f7d1NUz5v1KG-59" value="" style="endArrow=none;html=1;rounded=0;labelBackgroundColor=default;strokeColor=default;align=center;verticalAlign=middle;fontFamily=Helvetica;fontSize=11;fontColor=default;shape=connector;entryX=0;entryY=0.5;entryDx=0;entryDy=0;exitX=1;exitY=0.5;exitDx=0;exitDy=0;" parent="1" source="b3NYXewxobcBwOrp7OXC-111" target="yYhjXtK-f7d1NUz5v1KG-58" edge="1">
          <mxGeometry width="50" height="50" relative="1" as="geometry">
            <mxPoint x="-10" y="770" as="sourcePoint" />
            <mxPoint x="110" y="710" as="targetPoint" />
          </mxGeometry>
        </mxCell>
        <mxCell id="yYhjXtK-f7d1NUz5v1KG-60" value="&lt;u&gt;id_Cliente&lt;/u&gt;" style="ellipse;whiteSpace=wrap;html=1;fontFamily=Helvetica;fontSize=11;fillColor=#e1d5e7;strokeColor=#9673a6;" parent="1" vertex="1">
          <mxGeometry x="180" y="1280" width="120" height="80" as="geometry" />
        </mxCell>
        <mxCell id="yYhjXtK-f7d1NUz5v1KG-61" value="" style="endArrow=none;html=1;rounded=0;labelBackgroundColor=default;strokeColor=default;align=center;verticalAlign=middle;fontFamily=Helvetica;fontSize=11;fontColor=default;shape=connector;exitX=0;exitY=0;exitDx=0;exitDy=0;entryX=1;entryY=1;entryDx=0;entryDy=0;" parent="1" source="yYhjXtK-f7d1NUz5v1KG-60" target="2F_DHolSGNnzSSAKhQXL-9" edge="1">
          <mxGeometry width="50" height="50" relative="1" as="geometry">
            <mxPoint x="320" y="1280" as="sourcePoint" />
            <mxPoint x="370" y="1230" as="targetPoint" />
          </mxGeometry>
        </mxCell>
        <mxCell id="yYhjXtK-f7d1NUz5v1KG-62" value="&lt;u&gt;id_permiso&lt;/u&gt;" style="ellipse;whiteSpace=wrap;html=1;fontFamily=Helvetica;fontSize=11;fillColor=#e1d5e7;strokeColor=#9673a6;" parent="1" vertex="1">
          <mxGeometry x="2341" y="30" width="120" height="80" as="geometry" />
        </mxCell>
        <mxCell id="yYhjXtK-f7d1NUz5v1KG-63" value="" style="endArrow=none;html=1;rounded=0;labelBackgroundColor=default;strokeColor=default;align=center;verticalAlign=middle;fontFamily=Helvetica;fontSize=11;fontColor=default;shape=connector;entryX=0.5;entryY=1;entryDx=0;entryDy=0;exitX=0.75;exitY=0;exitDx=0;exitDy=0;" parent="1" source="2F_DHolSGNnzSSAKhQXL-8" target="yYhjXtK-f7d1NUz5v1KG-62" edge="1">
          <mxGeometry width="50" height="50" relative="1" as="geometry">
            <mxPoint x="2340" y="210" as="sourcePoint" />
            <mxPoint x="2390" y="160" as="targetPoint" />
          </mxGeometry>
        </mxCell>
        <mxCell id="yYhjXtK-f7d1NUz5v1KG-66" style="edgeStyle=none;shape=connector;rounded=0;orthogonalLoop=1;jettySize=auto;html=1;exitX=1;exitY=1;exitDx=0;exitDy=0;labelBackgroundColor=default;strokeColor=default;align=center;verticalAlign=middle;fontFamily=Helvetica;fontSize=11;fontColor=default;endArrow=none;" parent="1" source="yYhjXtK-f7d1NUz5v1KG-65" target="2F_DHolSGNnzSSAKhQXL-3" edge="1">
          <mxGeometry relative="1" as="geometry">
            <mxPoint x="860" y="427.5" as="targetPoint" />
          </mxGeometry>
        </mxCell>
        <mxCell id="yYhjXtK-f7d1NUz5v1KG-65" value="&lt;u&gt;id_valoracion&lt;/u&gt;" style="ellipse;whiteSpace=wrap;html=1;fontFamily=Helvetica;fontSize=11;fillColor=#e1d5e7;strokeColor=#9673a6;" parent="1" vertex="1">
          <mxGeometry x="770" y="267.5" width="120" height="80" as="geometry" />
        </mxCell>
        <mxCell id="yYhjXtK-f7d1NUz5v1KG-68" style="edgeStyle=none;shape=connector;rounded=0;orthogonalLoop=1;jettySize=auto;html=1;exitX=0;exitY=0.5;exitDx=0;exitDy=0;entryX=0.5;entryY=0;entryDx=0;entryDy=0;labelBackgroundColor=default;strokeColor=default;align=center;verticalAlign=middle;fontFamily=Helvetica;fontSize=11;fontColor=default;endArrow=none;" parent="1" source="yYhjXtK-f7d1NUz5v1KG-67" target="b3NYXewxobcBwOrp7OXC-97" edge="1">
          <mxGeometry relative="1" as="geometry" />
        </mxCell>
        <mxCell id="yYhjXtK-f7d1NUz5v1KG-67" value="&lt;u&gt;id_detalle_Pedido&lt;/u&gt;" style="ellipse;whiteSpace=wrap;html=1;fontFamily=Helvetica;fontSize=11;fillColor=#e1d5e7;strokeColor=#9673a6;" parent="1" vertex="1">
          <mxGeometry x="940" y="910" width="120" height="80" as="geometry" />
        </mxCell>
        <mxCell id="yYhjXtK-f7d1NUz5v1KG-70" style="edgeStyle=none;shape=connector;rounded=0;orthogonalLoop=1;jettySize=auto;html=1;exitX=0.5;exitY=0;exitDx=0;exitDy=0;entryX=0.5;entryY=1;entryDx=0;entryDy=0;labelBackgroundColor=default;strokeColor=default;align=center;verticalAlign=middle;fontFamily=Helvetica;fontSize=11;fontColor=default;endArrow=none;" parent="1" source="yYhjXtK-f7d1NUz5v1KG-69" target="2F_DHolSGNnzSSAKhQXL-2" edge="1">
          <mxGeometry relative="1" as="geometry" />
        </mxCell>
        <mxCell id="yYhjXtK-f7d1NUz5v1KG-69" value="&lt;u&gt;id_Pedido&lt;/u&gt;" style="ellipse;whiteSpace=wrap;html=1;fontFamily=Helvetica;fontSize=11;fillColor=#e1d5e7;strokeColor=#9673a6;" parent="1" vertex="1">
          <mxGeometry x="640" y="1720" width="120" height="80" as="geometry" />
        </mxCell>
        <mxCell id="yYhjXtK-f7d1NUz5v1KG-72" style="edgeStyle=none;shape=connector;rounded=0;orthogonalLoop=1;jettySize=auto;html=1;exitX=0.5;exitY=1;exitDx=0;exitDy=0;entryX=0.582;entryY=0.044;entryDx=0;entryDy=0;labelBackgroundColor=default;strokeColor=default;align=center;verticalAlign=middle;fontFamily=Helvetica;fontSize=11;fontColor=default;endArrow=none;entryPerimeter=0;" parent="1" source="yYhjXtK-f7d1NUz5v1KG-71" target="2F_DHolSGNnzSSAKhQXL-5" edge="1">
          <mxGeometry relative="1" as="geometry" />
        </mxCell>
        <mxCell id="yYhjXtK-f7d1NUz5v1KG-71" value="&lt;u&gt;id_marca&lt;/u&gt;" style="ellipse;whiteSpace=wrap;html=1;fontFamily=Helvetica;fontSize=11;fillColor=#e1d5e7;strokeColor=#9673a6;" parent="1" vertex="1">
          <mxGeometry x="1250" y="800" width="120" height="80" as="geometry" />
        </mxCell>
        <mxCell id="yYhjXtK-f7d1NUz5v1KG-77" style="edgeStyle=none;shape=connector;rounded=0;orthogonalLoop=1;jettySize=auto;html=1;exitX=0;exitY=0;exitDx=0;exitDy=0;entryX=1;entryY=0.75;entryDx=0;entryDy=0;labelBackgroundColor=default;strokeColor=default;align=center;verticalAlign=middle;fontFamily=Helvetica;fontSize=11;fontColor=default;endArrow=none;" parent="1" source="yYhjXtK-f7d1NUz5v1KG-73" target="2F_DHolSGNnzSSAKhQXL-1" edge="1">
          <mxGeometry relative="1" as="geometry">
            <Array as="points">
              <mxPoint x="1710" y="1610" />
              <mxPoint x="1660" y="1440" />
            </Array>
          </mxGeometry>
        </mxCell>
        <mxCell id="yYhjXtK-f7d1NUz5v1KG-73" value="&lt;u&gt;id_producto&lt;/u&gt;" style="ellipse;whiteSpace=wrap;html=1;fontFamily=Helvetica;fontSize=11;fillColor=#e1d5e7;strokeColor=#9673a6;" parent="1" vertex="1">
          <mxGeometry x="1765" y="1650" width="120" height="80" as="geometry" />
        </mxCell>
        <mxCell id="yYhjXtK-f7d1NUz5v1KG-79" style="edgeStyle=none;shape=connector;rounded=0;orthogonalLoop=1;jettySize=auto;html=1;exitX=0;exitY=0.5;exitDx=0;exitDy=0;entryX=1;entryY=0;entryDx=0;entryDy=0;labelBackgroundColor=default;strokeColor=default;align=center;verticalAlign=middle;fontFamily=Helvetica;fontSize=11;fontColor=default;endArrow=none;" parent="1" source="yYhjXtK-f7d1NUz5v1KG-78" target="2F_DHolSGNnzSSAKhQXL-6" edge="1">
          <mxGeometry relative="1" as="geometry" />
        </mxCell>
        <mxCell id="yYhjXtK-f7d1NUz5v1KG-78" value="&lt;u&gt;id_Categoria&lt;/u&gt;" style="ellipse;whiteSpace=wrap;html=1;fontFamily=Helvetica;fontSize=11;fillColor=#e1d5e7;strokeColor=#9673a6;" parent="1" vertex="1">
          <mxGeometry x="1940" y="860" width="120" height="80" as="geometry" />
        </mxCell>
        <mxCell id="QFJn7pteyF1qVFGb3qR_-1" value="" style="endArrow=none;html=1;rounded=0;labelBackgroundColor=default;strokeColor=default;align=center;verticalAlign=middle;fontFamily=Helvetica;fontSize=11;fontColor=default;shape=connector;exitX=1;exitY=0.5;exitDx=0;exitDy=0;entryX=1;entryY=1;entryDx=0;entryDy=0;" parent="1" source="2F_DHolSGNnzSSAKhQXL-37" target="yYhjXtK-f7d1NUz5v1KG-42" edge="1">
          <mxGeometry width="50" height="50" relative="1" as="geometry">
            <mxPoint x="1980" y="250" as="sourcePoint" />
            <mxPoint x="2080" y="220" as="targetPoint" />
          </mxGeometry>
        </mxCell>
        <mxCell id="yYhjXtK-f7d1NUz5v1KG-42" value="1" style="text;html=1;strokeColor=none;fillColor=none;align=center;verticalAlign=middle;whiteSpace=wrap;rounded=0;fontFamily=Helvetica;fontSize=11;fontColor=default;" parent="1" vertex="1">
          <mxGeometry x="2010" y="200" width="60" height="30" as="geometry" />
        </mxCell>
        <mxCell id="Kph2aFFG_yoHQz37BxBC-1" value="id_admin" style="ellipse;whiteSpace=wrap;html=1;" parent="1" vertex="1">
          <mxGeometry x="1910" y="395" width="120" height="80" as="geometry" />
        </mxCell>
        <mxCell id="Kph2aFFG_yoHQz37BxBC-2" value="&lt;u&gt;id_asignacion_permiso&lt;/u&gt;" style="ellipse;whiteSpace=wrap;html=1;fillColor=#e1d5e7;strokeColor=#9673a6;" parent="1" vertex="1">
          <mxGeometry x="2040" y="402.5" width="130" height="80" as="geometry" />
        </mxCell>
        <mxCell id="Kph2aFFG_yoHQz37BxBC-3" value="id_permiso" style="ellipse;whiteSpace=wrap;html=1;" parent="1" vertex="1">
          <mxGeometry x="2040" y="313" width="120" height="80" as="geometry" />
        </mxCell>
        <mxCell id="Kph2aFFG_yoHQz37BxBC-5" value="" style="endArrow=none;html=1;rounded=0;exitX=0.5;exitY=0;exitDx=0;exitDy=0;" parent="1" source="Kph2aFFG_yoHQz37BxBC-1" target="2F_DHolSGNnzSSAKhQXL-37" edge="1">
          <mxGeometry width="50" height="50" relative="1" as="geometry">
            <mxPoint x="1930" y="360" as="sourcePoint" />
            <mxPoint x="1980" y="310" as="targetPoint" />
          </mxGeometry>
        </mxCell>
        <mxCell id="Kph2aFFG_yoHQz37BxBC-6" value="" style="endArrow=none;html=1;rounded=0;exitX=0.449;exitY=0.038;exitDx=0;exitDy=0;exitPerimeter=0;" parent="1" source="Kph2aFFG_yoHQz37BxBC-3" target="2F_DHolSGNnzSSAKhQXL-37" edge="1">
          <mxGeometry width="50" height="50" relative="1" as="geometry">
            <mxPoint x="1980" y="350" as="sourcePoint" />
            <mxPoint x="2030" y="300" as="targetPoint" />
          </mxGeometry>
        </mxCell>
        <mxCell id="Kph2aFFG_yoHQz37BxBC-7" value="" style="endArrow=none;html=1;rounded=0;entryX=1;entryY=1;entryDx=0;entryDy=0;exitX=0;exitY=0;exitDx=0;exitDy=0;" parent="1" source="Kph2aFFG_yoHQz37BxBC-2" target="2F_DHolSGNnzSSAKhQXL-37" edge="1">
          <mxGeometry width="50" height="50" relative="1" as="geometry">
            <mxPoint x="1960" y="380" as="sourcePoint" />
            <mxPoint x="2010" y="330" as="targetPoint" />
          </mxGeometry>
        </mxCell>
      </root>
    </mxGraphModel>
  </diagram>
</mxfile>
